/* XPM */
static char *_42da2aaf0134865de7d523788ae690dWZah5stB8reXAuaH[] = {
/* columns rows colors chars-per-pixel */
"64 64 74 1 ",
"  c None",
". c black",
"X c #231E01",
"o c #262101",
"O c #242005",
"+ c #292401",
"@ c #2B2606",
"# c #3D3501",
"$ c #242212",
"% c #272514",
"& c #2B2815",
"* c #403808",
"= c #403B20",
"- c #524702",
"; c #534805",
": c #554B0B",
"> c #7B6B03",
", c #554E20",
"< c #554F2A",
"1 c #807111",
"2 c #807740",
"3 c #A38E03",
"4 c #B29B07",
"5 c #AA9616",
"6 c #BAA30B",
"7 c #B6A014",
"8 c #BBA411",
"9 c #B8A318",
"0 c #BFA919",
"q c #EDCD00",
"w c #F1D103",
"e c #F0D006",
"r c #F3D307",
"t c #F5D505",
"y c #F6D606",
"u c #F3D40B",
"i c #F4D408",
"p c #F7D70A",
"a c #F9D909",
"s c #FADA0A",
"d c #F8D80D",
"f c #F8D90E",
"g c #F6D711",
"h c #F7D811",
"j c #F7D812",
"k c #FADB13",
"l c #F9DA14",
"z c #F9DA15",
"x c #F9DA16",
"c c #FADB18",
"v c #F8DA1B",
"b c #FCDD18",
"n c #FCDE1C",
"m c #FDDF1C",
"M c #F6D920",
"N c #F3D82A",
"B c #F9DF35",
"V c #FFE020",
"C c #FFE121",
"Z c #FCE131",
"A c #FFE331",
"S c #AA9F55",
"D c #BBAA40",
"F c #B6A84E",
"G c #F6DE40",
"H c #FFE850",
"J c #FAE459",
"K c #FEE858",
"L c #FEE95E",
"P c #FFEA60",
"I c #FCE96A",
"U c #FEEB6C",
"Y c #FFEC6F",
"T c #FFEE7F",
/* pixels */
"                      ....................                      ",
"                      ....................                      ",
"                      ....................                      ",
"                      =<<<<<<<<<<<<<<,:::*                      ",
"                   ...2TTTTTTTTTTTTTTPCCC1...                   ",
"                   ...2TTTTTTTTTTTTTTPCCC1...                   ",
"                   ...2TTTTTTTTTTTTTTPCCC1...                   ",
"               ...$222DGGGGGGGGGGGGGGBCCC0111O...               ",
"               ...&TTTGqqqqqqqqqqqqqquCCCCCCC@...               ",
"               ...&TTTGqqqqqqqqqqqqqquCCCCCCC@...               ",
"               ...&TTTGqqqqqqqqqqqqqquCCCCCCC@...               ",
"            ...SSSFNNNMvxxxxxxxxxxxxxjuuuxCCC9555...            ",
"           ....TTTIqqqgCCCCCCCCCCCCCCxqqqgCCCCCCC....           ",
"           ....TTTIqqqgCCCCCCCCCCCCCCxqqqgCCCCCCC....           ",
"           ....TTTIqqqgCCCCCCCCCCCCCCxqqqgCCCCCCC....           ",
"           ....TTTIqqqgCCCPTTTTTTYCCCxqqqgCCCCCCC....           ",
"           ....TTTIqqqgCCCPTTTTTTYCCCxqqqgCCCCCCC....           ",
"           ....TTTIqqqgCCCPTTTTTTYCCCvqqqgCCCCCCC....           ",
"           %&&&IIIJeeevAAAKUUUUUYLmmmxqeegnnnCCCC+++o           ",
"       ....STTTqqqeCCCHTTTZsssssaatttsCCCgqqqnCCCttt3....       ",
"       ....STTTqqqeCCCHTTTZsssssaatttfCCCgqqqnCCCttt3....       ",
"       ....STTTqqqeCCCHTTTZssssssatttfCCCgqqqnCCCttt3....       ",
"       ....STTTqqqeCCCHTTTZssssssatttjCCCgqqqnCCCttt3....       ",
"       ....STTTqqqeCCCHTTTZssssssatttsCCCgqqqnCCCttt3....       ",
"       ....STTTqqqeCCCHTTTAasssssatttfCCCgqqqnCCCttt3....       ",
"       ....STTTqqqeCCCHTTTZasssssatttkCCCgqqqnCCCttt3....       ",
"       ....STTTqqqeCCCHTTTZasssssatttfCCCgqqqnCCCttt3....       ",
"       ....STTTqqqeCCCHTTTAssssssatttfCCCgqqqnCCCttt3....       ",
"       ....STTTqqqeCCCHTTTZsssssaatttfCCCgqqqnCCCttt3....       ",
"       ....STTTqqqeCCCHTTTZsssssaatttfCCCgqqqnCCCttt3....       ",
"       ....STTTqqqeCCCHTTTZsssssaatttfCCCgqqqnCCCttt3....       ",
"       ....STTTqqqeCCCHTTTZssssssatttfCCCgqqqnCCCttt3....       ",
"       ....STTTqqqeCCCHTTTZssssssatttjCCCgqqqnCCCttt3....       ",
"       ....STTTqqqeCCCHTTTZssssssatttsCCCgqqqnCCCttt3....       ",
"       ....STTTqqqeCCCHTTTZssssssatttjCCCgqqqnCCCttt3....       ",
"       ....STTTqqqeCCCHTTTZssssssatttsCCCgqqqnCCCttt3....       ",
"       ....STTTqqqeCCCHTTTZssssssatttfCCCgqqqnCCCttt3....       ",
"       ....STTTqqqeCCCHTTTZssssssatttfCCCgqqqnCCCttt3....       ",
"       ....STTTqqqeCCCHTTTZssssssatttfCCCgqqqnCCCttt3....       ",
"       ....STTTqqqeCCCHTTTZssssssatttfCCCgqqqnCCCttt3....       ",
"       ....STTTqqqeCCCHTTTZssssssatttfCCCjqqqnCCCttt3....       ",
"       ....STTTqqqeCCCHTTTZssssssatttfCCCjqqqnCCCttt3....       ",
"       ....STTTqqqeCCCHTTTZssssssatttfCCCgqqqnCCCttt3....       ",
"       ....STTTqqqeCCCHTTTZssssssatttfCCCjqqqnCCCttt3....       ",
"       ....STTTqqqeCCCHTTTZssssssatttfCCCgqqqnCCCttt3....       ",
"           %&&&nnnneeevAAAxyyyyyypmmmxeeegnnnfppp+++o           ",
"           ....CCCnqqqjCCCfttttttpCCCxqqqgCCCpttt....           ",
"           ....CCCnqqqjCCCfttttttpCCCxqqqgCCCpttt....           ",
"           ....CCCnqqqgCCCspyttttpCCCxqqqgCCCpttt....           ",
"           ....CCCnqqqgCCCCMCCCCCCCCCxqqqgCCCpttt....           ",
"           ....CCCnqqqgCCCCCCCCCCCCCCxqqqgCCCpttt....           ",
"           ....CCCnqqqgCCCCCCCCCCCCCCxqqqgCCCpttt....           ",
"            ...5557uuugxxxxxxxxxxxxxxjuuujbbn4333...            ",
"               ...@CCCgqqqqqqqqqqqqqquCCCkttt+...               ",
"               ...@CCCgqqqqqqqqqqqqqquCCCkttt+...               ",
"               ...@CCCgqqqqqqqqqqqqqquCCCkttt+...               ",
"               ...O1118gggewwwwwwwwwwpkkk6>>>X...               ",
"                   ...1CCCsttttttttttttet>...                   ",
"                   ...1CCCktttttttttttttt>...                   ",
"                   ...1CCCstttttttttttttt>...                   ",
"                      *:::;;-------------#                      ",
"                      ....................                      ",
"                      ....................                      ",
"                      ....................                      "
};
