/* XPM */
static char *_32c4f351a7b4746b0e85f82900bd71aYGdqgcikzWqEV98o[] = {
/* columns rows colors chars-per-pixel */
"64 64 118 2 ",
"   c None",
".  c black",
"X  c #241F00",
"o  c #292300",
"O  c #292400",
"+  c #2A2400",
"@  c #2A2503",
"#  c #2B2606",
"$  c #242212",
"%  c #2B2815",
"&  c #524700",
"*  c #544900",
"=  c #554B0B",
"-  c #655700",
";  c #665A0D",
":  c #736300",
">  c #7E6D00",
",  c #74660F",
"<  c #7E6F10",
"1  c #554F2A",
"2  c #665F33",
"3  c #746C3A",
"4  c #807111",
"5  c #807740",
"6  c #A79206",
"7  c #A89100",
"8  c #A99306",
"9  c #A9940B",
"0  c #AA9616",
"q  c #A99725",
"w  c #AA9A35",
"e  c #D2B600",
"r  c #D5BC1C",
"t  c #EDCD00",
"y  c #F5D400",
"u  c #F0D006",
"i  c #F5D505",
"p  c #F7D707",
"a  c #F9D700",
"s  c #FCDA00",
"d  c #F3D30A",
"f  c #F3D40B",
"g  c #F3D40F",
"h  c #F5D60F",
"j  c #F8D808",
"k  c #F8D80B",
"l  c #FADA0A",
"z  c #FBDA0B",
"x  c #FDDC0B",
"c  c #F8D90C",
"v  c #F8D90E",
"b  c #F0D212",
"n  c #F3D410",
"m  c #F4D511",
"M  c #F6D711",
"N  c #F2D416",
"B  c #FADB11",
"V  c #F8D913",
"C  c #FEDE11",
"Z  c #FEDE13",
"A  c #F9DA16",
"S  c #FEDF16",
"D  c #F1D51F",
"F  c #FADB18",
"G  c #F8DA1B",
"H  c #FADC19",
"J  c #F9DC1A",
"K  c #FCDD18",
"L  c #FCDE1C",
"P  c #FDDE1C",
"I  c #FDDF1C",
"U  c #FCDE1F",
"Y  c #FFE01C",
"T  c #FEE01E",
"R  c #FDDF20",
"E  c #FCDF21",
"W  c #F9DD2B",
"Q  c #FEE020",
"!  c #FFE020",
"~  c #FFE121",
"^  c #FFE124",
"/  c #FFE126",
"(  c #FFE22B",
")  c #FEE22C",
"_  c #FFE32E",
"`  c #FEE22F",
"'  c #FBE032",
"]  c #FCE131",
"[  c #FEE231",
"{  c #FFE331",
"}  c #FFE436",
"|  c #FFE43B",
" . c #FFE53B",
".. c #FDE33C",
"X. c #AA9D4A",
"o. c #AA9F55",
"O. c #EFDB56",
"+. c #FCE341",
"@. c #FFE540",
"#. c #FDE443",
"$. c #FFE648",
"%. c #FDE54B",
"&. c #FEE750",
"*. c #FDE652",
"=. c #FDE756",
"-. c #FFE850",
";. c #FFE855",
":. c #FDE758",
">. c #FDE85B",
",. c #D5C66A",
"<. c #FEE960",
"1. c #FFEA60",
"2. c #FFEA62",
"3. c #FFEA63",
"4. c #FFEA65",
"5. c #FEEA6A",
"6. c #FFEC6F",
"7. c #FFEE7F",
/* pixels */
"                                              . . . . . . . . . . . . . . . . . .                                               ",
"                                              . . . . . . . . . . . . . . . . . . .                                             ",
"                                              . . . . . . . . . . . . . . . . . . .                                             ",
"                                              % % % % % % % % % % % % % % % % % % $                                             ",
"                              . . . . . . . 1 7.7.7.7.7.7.7.7.7.7.7.7.7.7.7.7.7.7.5 . . . . . . .                               ",
"                              . . . . . . . 1 7.7.7.7.7.7.7.7.7.7.7.7.7.7.7.7.7.7.5 . . . . . . .                               ",
"                              . . . . . . . 1 7.7.7.7.7.7.7.7.7.7.7.7.7.7.7.7.7.7.5 . . . . . . .                               ",
"                        . . . 3 5 5 5 5 5 5 X.1.5.5.4.1.1.1.1.1.1.1.1.1.1.1.1.1.1.w = = = = = = =                               ",
"                      . . . . ,.7.7.7.7.7.7.5.+.+.+.{ ~ ~ ~ ~ ~ ~ ~ ~ ~ ~ ~ ~ ~ ~ ~ ~ ~ ~ ~ ~ ~ ~ . . . .                       ",
"                      . . . . ,.7.7.7.7.7.7.5.+.+.@.] ~ ~ ~ ~ ~ ~ ~ ~ ~ ~ ~ ~ ~ ~ ~ ~ ~ ~ ~ ~ ~ ~ . . . .                       ",
"                      . . . . ,.7.7.7.7.7.7.5.+.+.+.] ~ ~ ~ ~ ~ ~ ~ ~ ~ ~ ~ ~ ~ ~ ~ ~ ~ ~ ~ ~ ~ ~ . . . .                       ",
"                . . . 2 o.o.o.O.*.>.*.@.@.@.' N N N n f f f f f f f f g f f f f f A ~ ~ ~ ~ ~ ~ ~ 4 4 4 ; . . .                 ",
"                . . . 5 7.7.7.%.+.+.+.~ ~ ~ A t t t t t t t t t t t t t t t t t t M ~ ~ ~ ~ ~ ~ ~ ~ ~ ~ 0 . . . .               ",
"                . . . 5 7.7.7.%.+.+.+.~ ~ ~ A t t t t t t t t t t t t t t t t t t M ~ ~ ~ ~ ~ ~ ~ ~ ~ ~ 0 . . . .               ",
"                . . . 5 7.7.7.%.+.+.+.~ ~ ~ A t t t t t t t t t t t t t t t t t t M ~ ~ ~ ~ ~ ~ ~ ~ ~ ~ 0 . . . .               ",
"        . . . 1 7.7.7.>.+.+.+./ ~ ~ ~ t t t f L L L L L L L L L L L L L L L L L L M u u u L ~ ~ ~ ~ ~ ~ D r r r , . . .         ",
"        . . . 1 7.7.7.*.@.+.+./ ~ ~ ~ t t t d ~ ~ ~ ~ ~ ~ ~ ~ ~ ~ ~ ~ ~ ~ ~ ~ ~ ~ M t t t L ~ ~ ~ ~ ~ ~ ~ ~ ~ ~ 4 . . .         ",
"        . . . 1 7.7.7.>.+.+.+.( ~ ~ L t t t g ~ ~ ~ ~ ~ ~ ~ ~ ~ ~ ~ ~ ~ ~ ~ ~ ~ ~ M t t t K ~ ~ ~ ~ ~ ~ ~ ~ ~ ~ 4 . . .         ",
"        . . . 1 7.7.7.*.......E J L F u u u h T ~ ~ ( ] { { { { { { { { ] ` ~ ~ ~ A u u d A L ~ ~ ~ ~ ~ ~ ~ ~ ~ 4 . . .         ",
"        . . . 1 7.7.7.@.~ ~ ~ u t t u ~ ~ ~ ~ ~ ~ ~ 1.7.7.7.7.7.7.7.7.7.7.>.~ ~ ~ ~ ~ ~ / t t t t ~ ~ ~ ~ ~ ~ ~ 4 . . .         ",
"        . . . 1 7.7.7...~ ~ ~ u t t u ~ ~ ~ ~ ~ ~ ~ 1.7.7.7.7.7.7.7.7.7.7.1.~ ~ ~ ~ ~ ~ ~ u t t t ~ ~ ~ ~ ~ ~ ~ 4 . . .         ",
"        . . . 1 7.7.7.+.~ ~ ~ u t t u ~ ~ ~ ~ ~ ~ ~ 1.7.7.7.7.7.7.7.7.7.7.1.~ ~ ~ ~ ~ ~ ~ u t t t ~ ~ ~ ~ ~ ~ ~ 4 . . .         ",
"  . . $ 5 5 5 X.1.1.1.W M M M M M M V ~ ~ ~ ( @.@.@.&.:.>.:.>.*.>.;.>.>.;.#.K K K T ~ ~ ~ h f f M @.@.@.} ~ ~ ~ 0 = = =         ",
". . . % 7.7.7.5.+.+.+.N t t t L ~ ~ ~ ~ ~ ~ @.7.7.7.] l l l l l l l l l l j i i i K ~ ~ ~ ~ ~ ~ ] 7.7.7.1.~ ~ ~ ~ ~ ~ ~ # . . . ",
". . . % 7.7.7.5.+.+.+.N t t t L ~ ~ ~ ~ ~ ~ @.7.7.7.] l l l l l l l l l l j i i i K ~ ~ ~ ~ ~ ~ ] 7.7.7.1.~ ~ ~ ~ ~ ~ ~ # . . . ",
". . . % 7.7.7.5.+.+.+.N t t t L ~ ~ ~ ~ ~ ~ @.7.7.7.] l l l l l l l l l l j i i i K ~ ~ ~ ~ ~ ~ { 7.7.7.1.~ ~ ~ ~ ~ ~ ~ # . . . ",
". . . % 7.7.7.1.( ` ` g t t t L ~ ~ ~ ~ ~ ~ @.7.7.7.] l l l l l l l l l l j i i i K ~ ~ ~ ~ ~ ~ { 7.7.7.1.~ ~ ~ S C C C @ . . . ",
". . . % 7.7.7.1.~ ~ ~ f t t t L ~ ~ ~ ~ ~ ~ @.7.7.7.] l l l l l l l l l l j i i i K ~ ~ ~ ~ ~ ~ { 7.7.7.1.~ ~ ~ x s s s @ . . . ",
". . . % 7.7.7.1.~ ~ ~ f t t t L ~ ~ ~ ~ ~ ~ @.7.7.7.] l l l l l l l l l l j i i i K ~ ~ ~ ~ ~ ~ { 7.7.7.1.~ ~ ~ x s s s + . . . ",
". . . % 7.7.7.1.~ ~ ~ f t t t L ~ ~ ~ ~ ~ ~ @.7.7.7.] l l l l l l l l l l j i i i K ~ ~ ~ ~ ~ ~ { 7.7.7.1.~ ~ ~ x s s s + . . . ",
". . . % 7.7.7.1.~ ~ ~ f t t t L ~ ~ ~ ~ ~ ~ @.7.7.7.] l l l l l l l l l l j i i i K ~ ~ ~ ~ ~ ~ { 7.7.7.1.~ ~ ~ x s s s @ . . . ",
". . . % 7.7.7.1.~ ~ ~ f t t t L ~ ~ ~ ~ ~ ~ @.7.7.7.] l l l l l l l l l l j i i i K ~ ~ ~ ~ ~ ~ { 7.7.7.1.~ ~ ~ x s s s + . . . ",
". . . % 7.7.7.1.~ ~ ~ f t t t L ~ ~ ~ ~ ~ ~ @.7.7.7.` l l l l l l l l l l j i i i K ~ ~ ~ ~ ~ ~ { 7.7.7.1.~ ~ ~ x s s s @ . . . ",
". . . % 7.7.7.1.~ ~ ~ f t t t L ~ ~ ~ ~ ~ ~ @.7.7.7.' l l l l l l l l l l j i i i K ~ ~ ~ ~ ~ ~ { 7.7.7.1.~ ~ ~ x s s s @ . . . ",
". . . % 7.7.7.1.~ ~ ~ f t t t L ~ ~ ~ ~ ~ ~ @.7.7.7.' l l l l l l l l l l j i i i K ~ ~ ~ ~ ~ ~ { 7.7.7.1.~ ~ ~ x s s s @ . . . ",
". . . % 7.7.7.1.~ ~ ~ f t t t L ~ ~ ~ ~ ~ ~ @.7.7.7.` l l l l l l l l l l j i i i K ~ ~ ~ ~ ~ ~ { 7.7.7.1.~ ~ ~ x s s s @ . . . ",
". . . % 7.7.7.1.~ ~ ~ f t t t L ~ ~ ~ ~ ~ ~ @.7.7.7.' l l l l l l l l l l j i i i K ~ ~ ~ ~ ~ ~ { 7.7.7.1.~ ~ ~ x s s s @ . . . ",
". . . % 7.7.7.1.~ ~ ~ f t t t L ~ ~ ~ ~ ~ ~ @.7.7.7.` l l l l l l l l l l j i i i K ~ ~ ~ ~ ~ ~ { 7.7.7.1.~ ~ ~ x s s s + . . . ",
". . . % 7.7.7.1.~ ~ ~ f t t t L ~ ~ ~ ~ ~ ~ ..7.7.7.' l l l l l l l l l l j i i i K ~ ~ ~ ~ ~ ~ { 7.7.7.1.~ ~ ~ x s s s @ . . . ",
". . . % 7.7.7.1.~ ~ ~ f t t t L ~ ~ ~ ~ ~ ~ @.7.7.7.' l l l l l l l l l l j i i i K ~ ~ ~ ~ ~ ~ { 7.7.7.1.~ ~ ~ x s s s + . . . ",
". . . % 7.7.7.-.E ~ ~ f t t t L ~ ~ ~ ~ ~ ~ @.7.7.7.] l l l l l l l l l l j i i i K ~ ~ ~ ~ ~ ~ ] 7.7.7.1.~ ~ ~ x s s s @ . . . ",
"        1 1 1 q E E E F A A A d f g v ~ ~ ~ ( @.@...J c i j j j i j i j j c K K K T ~ ~ ~ $.-.-.-.-.-.-.| C C C 8 > > > X . .   ",
"        . . . < E L L ~ ~ ~ ~ t t t u ~ ~ ~ ~ ~ ~ ~ v i i i i i i i i i i v ~ ~ ~ ~ ~ ~ ~ 6.7.7.6.~ ~ ~ S s s s * . . .         ",
"        . . . < L E E E ~ ~ ~ t t t u ~ ~ ~ ~ ~ ~ ~ v i i i i i i i i i i v ~ ~ ~ ~ ~ ~ ~ 6.7.7.6.~ ~ ~ S s s s * . . .         ",
"        . . . < L E L ~ ~ ~ ~ t t t u ~ ~ ~ ~ ~ ~ ~ V i i i i i i i i i i v ~ ~ ~ ~ ~ ~ ~ 6.7.7.6.~ ~ ~ S s s s * . . .         ",
"        . . . 4 ~ ~ ~ ~ ~ ~ ~ ~ ~ J J u u u M ~ ~ ~ T Y K T L T Y Y T J Y T ~ ~ ~ ;.6.6.6...{ { _ ~ ~ ~ S s s s * . . .         ",
"        . . . 4 ~ ~ ~ ~ ~ ~ ~ ~ ~ ~ L t t t M ~ ~ ~ ~ ~ ~ ~ ~ ~ ~ ~ ~ ~ ~ ~ ~ ~ ~ 1.7.7.7.{ ~ ~ ~ ~ ~ ~ S s s s * . . .         ",
"        . . . 4 ~ ~ ~ ~ ~ ~ ~ ~ ~ ~ T t t t M ~ ~ ~ ~ ~ ~ ~ ~ ~ ~ ~ ~ ~ ~ ~ ~ ~ ~ >.7.7.7./ ~ ~ ~ ~ ~ ~ S s s s * . . .         ",
"        . . . , r r r E E E ~ ~ ~ ~ L u u u F ] { { { { { { { { { { { { { { { { ] 1.7.7.7.~ ~ ~ ~ ~ ~ ~ C s s s * . . .         ",
"              . . . . 0 E E ~ ~ ~ ~ ~ ~ ~ ~ -.7.7.7.7.7.7.7.7.7.7.7.7.7.7.7.7.7.7.@.~ ~ ~ ~ ~ ~ T s s s > . . .                 ",
"              . . . . 0 ~ ~ ~ ~ ~ ~ ~ ~ ~ ~ -.7.7.7.7.7.7.7.7.7.7.7.7.7.7.7.7.7.7.@.~ ~ ~ ~ ~ ~ T s s s > . . .                 ",
"              . . . . 0 ~ ~ ~ ~ ~ ~ ~ ~ ~ ~ -.7.7.7.7.7.7.7.7.7.7.7.7.7.7.7.7.7.7.@.~ ~ ~ ~ ~ ~ Y s s s > . . .                 ",
"                . . . ; 4 4 4 ~ ~ ~ ~ ~ ~ ~ @.1.1.1.1.1.1.1.1.1.1.1.1.1.1.1.1.1.1.] Y Y S S S S b 7 7 7 - . . .                 ",
"                      . . . . ~ ~ ~ ~ ~ ~ ~ ~ ~ ~ ~ ~ ~ ~ ~ ~ ~ ~ ~ ~ ~ ~ ~ ~ ~ ~ x s s s s s s e . . . .                       ",
"                      . . . . ~ ~ ~ ~ ~ ~ ~ ~ ~ ~ ~ ~ ~ ~ ~ ~ ~ ~ ~ ~ ~ ~ ~ ~ ~ ~ x s s s s s s e . . . .                       ",
"                      . . . . ~ ~ ~ ~ ~ ~ ~ ~ ~ ~ ~ ~ ~ ~ ~ ~ ~ ~ ~ ~ ~ ~ ~ ~ ~ ~ x s s s s s s e . . . .                       ",
"                              = = = = = = = 9 x x x x x x x x x x x x x x l c l V 8 > > > > > > : . . .                         ",
"                              . . . . . . . > s s s s s s s s s s s s s s a y y y & . . . . . . .                               ",
"                              . . . . . . . > s s s s s s s s s s s s s a a y y y & . . . . . . .                               ",
"                              . . . . . . . > s s s s s s s s s s s s s s a y y i & . . . . . . .                               ",
"                                            X @ + @ + + @ + + @ + @ + @ @ @ + + @                                               ",
"                                            . . . . . . . . . . . . . . . . . . .                                               ",
"                                            . . . . . . . . . . . . . . . . . . .                                               ",
"                                              . . . . . . . . . . . . . . . . . .                                               "
};
