/* XPM */
static char *_59851a3a84549b0db139ec5acc77bc8PGb3H4eSL1irgCaq[] = {
/* columns rows colors chars-per-pixel */
"64 64 209 2 ",
"   c #4F2912",
".  c #4F2D1A",
"X  c #532C14",
"o  c #582F14",
"O  c #4F311F",
"+  c #5C3116",
"@  c #5A341B",
"#  c #5A341C",
"$  c #603317",
"%  c #663519",
"&  c #68371A",
"*  c #65391C",
"=  c #6A391B",
"-  c #713E1D",
";  c #4E3729",
":  c #5A3823",
">  c #5E3A24",
",  c #4D3E35",
"<  c #633C25",
"1  c #6D3E21",
"2  c #703F21",
"3  c #6F411D",
"4  c #73421F",
"5  c #5A4030",
"6  c #6E4225",
"7  c #664129",
"8  c #6B452A",
"9  c #6E492D",
"0  c #724425",
"q  c #794721",
"w  c #764923",
"e  c #7D4B24",
"r  c #72452A",
"t  c #744A2C",
"y  c #7C4E2D",
"u  c #7D512C",
"i  c #674936",
"p  c #6D4C33",
"a  c #734C32",
"s  c #774F34",
"d  c #6D503A",
"f  c #7C5132",
"g  c #775439",
"h  c #7D563B",
"j  c #594940",
"k  c #634F44",
"l  c #685549",
"z  c #775742",
"x  c #755946",
"c  c #775C4B",
"v  c #785D4D",
"b  c #6C5D54",
"n  c #7A5F50",
"m  c #706156",
"M  c #7D6353",
"N  c #7A6659",
"B  c #6A6766",
"V  c #6C6C6C",
"C  c #776C67",
"Z  c #73706E",
"A  c #7D716A",
"S  c #747474",
"D  c #7A7673",
"F  c #7C7877",
"G  c #7C7C7C",
"H  c #814E25",
"J  c #814F29",
"K  c #855226",
"L  c #84542B",
"P  c #895629",
"I  c #8E5A2A",
"U  c #925E2C",
"Y  c #825635",
"T  c #855934",
"R  c #8B5C33",
"E  c #835B3C",
"W  c #885E3C",
"Q  c #935F31",
"!  c #95612D",
"~  c #9A642E",
"^  c #8E6137",
"/  c #8B613D",
"(  c #956333",
")  c #9B6631",
"_  c #9D6934",
"`  c #94673C",
"'  c #9B6B3B",
"]  c #A06D37",
"[  c #A16E39",
"{  c #A3723D",
"}  c #815B40",
"|  c #8C6341",
" . c #866548",
".. c #8D6749",
"X. c #8D684A",
"o. c #906641",
"O. c #936A45",
"+. c #9C6E40",
"@. c #956E4A",
"#. c #9E7042",
"$. c #95704D",
"%. c #9B744D",
"&. c #856953",
"*. c #846A55",
"=. c #856D5C",
"-. c #906F51",
";. c #8F7054",
":. c #8B725D",
">. c #957452",
",. c #9C7651",
"<. c #9E7853",
"1. c #93765A",
"2. c #95795C",
"3. c #A57542",
"4. c #A77845",
"5. c #A87A46",
"6. c #A37648",
"7. c #A5794C",
"8. c #AB7D4A",
"9. c #A17A53",
"0. c #A47F59",
"q. c #816E62",
"w. c #887364",
"e. c #83746C",
"r. c #8D7A6E",
"t. c #937C6B",
"y. c #857D77",
"u. c #927D71",
"i. c #AD814E",
"p. c #A78055",
"a. c #AE8351",
"s. c #A6825B",
"d. c #AB855B",
"f. c #AD885D",
"g. c #B18654",
"h. c #B28857",
"j. c #B48C5B",
"k. c #B8905F",
"l. c #9E8369",
"z. c #8B827C",
"x. c #958275",
"c. c #998476",
"v. c #94847A",
"b. c #9A877E",
"n. c #9C897D",
"m. c #A98862",
"M. c #AC8962",
"N. c #B18E65",
"B. c #B99465",
"V. c #BA9564",
"C. c #B4936A",
"Z. c #B99669",
"A. c #BE9B6C",
"S. c #BC9C72",
"D. c #BFA177",
"F. c #C09E6E",
"G. c #C19F70",
"H. c #C3A374",
"J. c #C3A579",
"K. c #C7A87B",
"L. c #C9AB7D",
"P. c #838281",
"I. c #8B8784",
"U. c #8C8C8C",
"Y. c #938984",
"T. c #9C8C83",
"R. c #938D8B",
"E. c #9C8F8A",
"W. c #9C918B",
"Q. c #949291",
"!. c #999492",
"~. c #9C9997",
"^. c #9C9C9C",
"/. c #A08F85",
"(. c #A29287",
"). c #A49C98",
"_. c #AAA19D",
"`. c #B1A69F",
"'. c #A3A3A2",
"]. c #AEA9A7",
"[. c #ACACAC",
"{. c #B4A9A4",
"}. c #B5ABA5",
"|. c #B4AEAB",
" X c #B5B0AE",
".X c #BAB2AC",
"XX c #B5B5B4",
"oX c #BBB6B3",
"OX c #BCBCBB",
"+X c #CBAE81",
"@X c #CDB284",
"#X c #CFB588",
"$X c #D0B689",
"%X c #C3BDBB",
"&X c #C3C0BE",
"*X c #C4C4C4",
"=X c #CDC9C6",
"-X c #CACACA",
";X c #D3CFCD",
":X c #D5D1CE",
">X c #D6D5D5",
",X c #DCD7D5",
"<X c #DBDBDB",
"1X c #E0DFDE",
"2X c #E1E0DF",
"3X c #E3E2E2",
"4X c #EDEDED",
"5X c #F3F3F3",
"6X c #FBFBFB",
/* pixels */
"l.f r 1 2 6 2 1 8 2 2 2 r 2 r 2 2 2 r r r 2 2 r 0 r 2 r w r r r r r 0 r r r r r r r r r r r t r r r t r r r t r r t 2 t t t } u.",
" .6 0 r r 2 1 1 & & & = = = = < = & & & = & & & & = & & = = % % % = & & = % = % % % % = & & % % % % % % & & & & & < = = 1 & 2 } ",
"} y | $.,.,.| t < & - H H H H H H e e H e H H H e e e e e 4 4 e H e 4 e 4 4 4 H q e q e e q q q q q e q e Y e < % r | } | } Y Y ",
"} W 0.A.J.K.M.W 1 & P U U U U U ( ! U U ( ` ` U U U U U ! U ! ( ( U U U U U U U ( Q U ! ( ) ( ( ( U U U +.7.} 0 = | F.Z.F.F.9...",
"} Y 6.B.+X$XC.| 2 = Q [ ] [ 3.[ 4.3.] [ 3.8.8.[ 3.[ ] [ [ ] [ 5.5.[ ~ ] [ _ ) _ 3.[ [ { 8.8.8.8.4._ _ ] 5.h.@.w = R j.G.@X@X0...",
"} H ` 8.H.#XC./ 1 1 ` 8.8.j.F.B.h.g.5.8.8.8.h.g.H.B.g.g.g.g.g.g.g.i.{ g.F.F.g.{ g.g.h.G.V.8.4.8.3.4.h.V.S.F.$.0 & H 3.G.+X@XM...",
"} e Q 5.h.K.Z.| 1 2 9.B.Z.G.G.G.F.B.B.F.G.Z.A.A.L.J.F.A.H.J.J.H.G.H.V.J.L.J.F.F.G.G.H.+XK.F.B.B.V.V.F.K.@XH.@.r & H +.h.Z.+XM...",
"} e ( [ { H.C.| 1 1 O.s.d.d.M.M.m.d.0.m.d.m.d.m.M.M.f.f.M.C.N.N.M.N.M.N.C.N.N.g.M.M.N.C.N.h.M.N.N.M.N.C.Z.m.| 6 & H [ 8.8.G.M...",
"} e ` 4.[ F.C.| = = y Y Y h Y Y Y E Y Y E E Y E E E Y E T E E E W E T W E W W W W E W W E W E / W W | } } E t & & J 3.8.8.G.M...",
"} J +.g.[ F.C.| 1 % % % & % % % $ % % % % % % & % % % % % & % % % % % % % % + % % % % % % $ % % % & & % = % % % = L 8.8.8.G.M...",
"} J ' 8.[ F.C.| 2 1 2 r r r r r 2 r 1 1 % < 2 2 2 1 1 1 1 = = & % = = = = = & & & * % % & & = & & & % & & & 1 & = L 5.8.8.G.M...",
"} J ' 8.{ H.C.| r Y N.J.J.J.J.J.+XJ.N.E e @.J.J.J.J.J.J.J.J.<.t s <.D.H.D.J.H.H.J.S.O.1 y d.S.S.S.S.S.S.S.M...2 = L 5.3.8.G.M...",
"} J ` h.F.+XC.| 0 E Z.H.H.+X$X$X$X$XS.o.t 9.+XK.J.#X$X$X$X#Xd.f y s.L.H.L.@X$X$X#X$X,.6 f C.J.H.+X@X$X@X$X+X..2 = L 8.8.G.+X0...",
"} e ` h.+X$XC.| r Y s.d.h.H.+X+X+X+XH...y 7.H.8.g.H.#X#XL.@Xs.f y s.A.g.V.L.@XL.@X$X,.0 y N.V.h.F.+X@X+X@XG.$.2 = J 3.F.+X@XM...",
"} e ) g.B.+XC. .s c >.| [ B.K.H.G.K.S.o.y ,.B.) [ F.#XH.N.@Xs.f f 9.g.' g.H.H.V.J.#X,.2 y s.8.{ B.L.+XF.G.+X,.2 = H 3.V.G.+XM...",
"} e ' 8.{ H.m.;.q.b.v.&.X.N.H.F.h.A.S.| y ,.F.) [ F.L.k.4.L.m.u f <.8._ i.G.H.h.B.L.<.2 y 0.5.[ h.L.H.h.F.G.,.2 & H 3.j.N.G.M...",
"} e +.g.4.G.2.t.|.,X,X).r.m.S.N.4.k.Z.| u $.B.~ { A.K.h.3.K.s.u y <.5._ 8.H.S.a.h.K.<.0 u 0.4._ j.J.Z.8.j.J.@.r = K 5.B.g.G.M...",
"} e Q ] [ G.1.b.:X5X6X%Xr.M *.*.&.=.:.M v N =. .M :.:.=.&.:.:.n v *.*. .*.1.:.>.;.t.*.z c =.&.&.>.1.O.o.j.J.$.r = H [ 4.8.G.M...",
"} e Q 6.8.J.2.n.:X5X6X*Xv.b.`.oX.XoX.XoX.X.X.X.X.X.X X X}..X}.}.}.|.}.}.}.}.{.}.{.{.`.`.`.`.{.`.).T.w.o.j.J.@.r % H _ 5.h.G.M...",
"} e ( g.G.$X2.u.OX4X4X|.Y.`.;X3X3X3X3X3X3X3X3X3X2X3X3X1X2X2X2X2X3X<X<X3X<X3X<X2X2X<X<X1X<X<X<X<X>XoXT.@.h.H.>.r = H [ V.G.K.M...",
"} e ( g.L.$X2.w.].<X;X'.z.E.|.*X&X&X*X*X*X*X*X*X*X*X*X-X*X*X*X*X*X*X-X*X*X-X*X*X=X*X-X*X-X-X-X-X*X|.T.>.g.S.@.w & H [ G.+X+XM...",
"E e U 3.F.+X2.q.^.-XOX!.C b B S S S S S S S S S S F F S F G F G F G G G G G P.G G P.P.P.G P.P.P.P.I.u.$.g.A.@.r & H [ g.H.+XM...",
"} e U ] g.K.2.N I.^.I.y.e.A I.U.U.Q.U.Q.Q.U.U.Q.U.U.Q.U.U.U.U.U.U.U.U.U.U.U.U.U.U.U.U.U.U.I.U.I.U.R.v.,.a.Z.@.0 & H ) 3.V.K.m...",
"} e U { F.+Xt.N V V B D e.w.v.W.E.Q.E.E.W.W.W.W.W.W.W.W.W.W.W.W.W.W.W.W.R.E.E.W.W.W.W.R.W.W.W.W.!.T.w.O.a.Z.@.0 & H ] 5.F.K.M...",
"} e ( 8.k.L.>.=.R.U.U.Y.=.l g c c c c c c c c v v v M c M n n M M M M n M M M M N M M N N *.N N N c d T 8.Z.@.r & H 3.8.G.L.M...",
"} e ` 8.k.L.-.M v.W.W.r.c t 9 6 6 8 t 7 < 7 9 1 7 t 9 7 6 9 9 > < 7 7 7 9 9 8 7 t a 9 > < 7 8 8 a t 0 P g.Z.@.e & K 4.g.F.J.M...",
"} e ( 8.K.$X>.a z N M i a / / I K / >.f 1 y ^ K P O.^ K L O.W 6 1 L e K ^ ^ I L T $.Y * * e K L / / R Q g.Z.@.0 = J 3.h.J.+Xm...",
"} e Q 8.K.$Xm.g # # # @ f %.5._ ! i.N.| w W 4.~ ' a.8.! ' a.%.y w W ! ! 8.8.' ( _ Z.@.6 0 ^ ( _ 5.i.[ _ 8.Z.@.0 & H ] h.L.+XM...",
"} e ( 8.G.@XC.E % # = H ' i.8.] ~ i.Z.| t I [ ~ _ h.i.~ ] h.<.f 0 I ~ ~ i.8._ ) ] F.%.6 4 ( _ [ a.a.{ ) g.Z.@.r & H ] g.K.+XM...",
"z e ( 4.8.K.Z.| 1 - K U { i.{ ] ~ i.Z.o.w e ) ~ _ a.i.~ _ h.9.f 0 K ~ ~ 8.4._ ~ ! A.,.4 4 U ! [ 8.i.[ _ 8.B.@.0 & e ] 8.V.K.M...",
"} e ( 5.8.H.C.o.2 4 I U 3.8.{ ~ ~ i.Z.o.r H ~ ~ _ i.5.~ [ j.9.u - K ~ ~ 5.3.) ~ ) A.%.6 & K ! ' 8.8._ _ 8.N.O.0 & H ] 8.h.G.M...",
"} e ( 8.B.+XC.} 2 4 U ~ { 8.[ ~ ~ i.N.| w e ~ ~ _ 5.{ ) [ j.9.y - K ~ ) 3.{ ) ~ ! f...6 7 t f ^ ` [ _ ) 4.h.@.0 & e [ g.V.J.m...",
"} H ' h.G.@XZ.} - - I ~ { { ] ~ ( 5.j.o.q H ~ ~ ] [ [ ) [ h.9.y - K ~ ~ [ [ ~ U P / x l N N M x h R U ~ 4.f.O.r % e 3.B.J.L.M.X.",
"} H Q 3.8.K.C.| - q I ~ _ _ ) ~ ~ 7.j.} 0 H ~ ~ ~ ] ) ~ [ h.9.y 4 K ~ ~ _ _ ! P 9 k A ~.oX&X].z.b p u ! 4.h.O.w * K { k.F.K.M...",
"} J #.j.5.G.C.| - H I ~ ~ ~ ~ ~ ~ 8.j.W 0 H ~ ~ ~ ~ ~ ) ] 8.<.y - K ~ ~ ~ ! I t j Z [.2X6X6X5X&Xz.l 9 K 4.f.O.w & L 3.8.g.F.m...",
"E r 3.h.3.G.C.W - - U ~ ~ ~ ~ ~ ~ 5.h.W 0 H ~ ~ ~ ~ ~ ( _ 5.<.f - K ~ ~ ~ ! u i G Q.*X4X6X6X6X>X'.z.l a ' f.O.9 & R g.h.g.F.M...",
"} q Q 3.5.K.C.| - - U ~ ~ ~ ~ ~ ~ 5.h.W 0 H ~ ~ ~ ~ ~ ~ ) 5.<.y 4 K ~ ~ ~ I t b '.'.*X3X5X5X4X-X[.^.A d ` h.O.w % J 3.8.g.G.M...",
"} H Q [ 8.K.Z.| - q I ~ ~ ~ ~ ~ ~ 5.j.} 0 H ~ ~ ~ ~ ~ ~ _ 4.%.y 3 K ~ ~ ~ K p C XX[.OX<X2X>X*X[.[.[.z.c / d.@.3 = H ] 5.h.H.m...",
"E H Q ] 3.G.C.| - 4 I ~ ~ ~ ~ ~ ) 5.j.} e H ~ ~ ~ ~ ~ ~ ) 4.%.u 3 K ~ ~ ~ e p D XXXX*X>X;XXX'.Q.^.'.U.M / d.` 9 = H ] 3.h.G.M...",
"} r _ 8.3.G.C.| q - I ~ ~ ) ~ ~ ~ 5.j.| 0 H ~ ~ ~ ~ ~ ~ _ 6.7.y 3 K ~ ~ ~ K p A OX[.XX*XXX^.U.G U.^.v.m ^ d.$.w & H [ 8.8.S.M...",
"} H [ 0.g.K.Z.W - q I ~ ~ ~ ~ ~ ~ 5.a.W r H ~ ~ ~ ~ ~ ~ _ 5.7.s - K ~ ~ ~ P t b OX^.U.P.G S V V U.'.y.d R 5.@.r = K 5.F.h.G.M...",
"} 2 ( 8.F.L.Z.W - 4 U Q ~ ~ ~ ~ ~ 4.0.W 0 H ~ ~ ~ ~ ~ ~ _ 3.,.u - K ~ ~ ~ ! u d I.].Q.S V V V U.'.R.b 9 Q 7.O.0 & H 3.j.F.G.M...",
"} q Q 8.G.@XC.| 0 4 I ~ ~ ~ ~ ~ ~ 3.8.W e H ~ ~ ~ ~ ~ ~ _ 5.,.u - K ~ ~ ~ ! P w k D U.Q.~.^.^.~.P.m i u ' 7.O.2 & H ] j.G.+XM...",
"E H Q 3.F.+XC.| - - I ~ ~ ~ ~ ~ ~ { 7.W 0 H ~ ~ ~ ~ ~ ~ ) { %.u - K ~ ~ ~ ~ I 4 : j B S S F F V l 5 1 L [ 7.@.r & H ] g.G.+XM...",
"} e ( 8.F.+XZ.| 2 - U ~ ) ~ ~ ~ U 3.7.W 0 H ~ ~ ~ ~ ~ ) ) _ %.u - K ~ ~ ~ ~ ! K @ O ; , , , , ; ; @ 4 ! #.7.O.0 & H ] 5.G.+X0...",
"} e ( j.G.$XC.| 2 q I ~ ~ ~ ~ ~ ) 3.5.W 0 H ~ ~ ~ ~ ~ ~ ~ ~ $.u - K ~ ~ ~ ~ ~ I 3 X     . . X   X @ K ! [ 7.O.2 & H [ F.K.+XM...",
"} q _ 8.K.@XC.} r r T U U ~ ~ ~ Q { 7.W q H ~ ~ ~ ~ ~ ~ ~ ) %.u - K ~ ~ ~ ~ ~ U e @ o           + 4 I ! [ 5.@.2 & H 3.F.+X+XM...",
"} r ( 5.h.+XM...c =.q.} I Q ~ ~ ~ { 5.W 0 H ~ ~ ~ ~ ~ ~ ~ ) @.u - K ~ ~ ~ ~ ~ ~ ! w @ o     X o 3 I ! ~ [ 5.O.2 & H [ N.F.+XM...",
"} H Q [ 3.H.0.w./.|..Xv.| R U ~ ( { ,.E 0 e ( ! ! ( ! ! ( ( @.s 4 K ! ! ! ! ~ ! ~ #.u # + + * w P ! ! ~ { 5.o.t = H _ 8.g.F.m.X.",
"} H _ 3.[ G.1.x.*X3X3X|.q.z W | | O.-. .g h | | | / | / / / X.h a h / / / / / / / $.z 8 7 9 a f ^ T P U _ #.| 0 = H [ 4.i.A.M.X.",
"} J +.8.[ F.1.T.:X5X6X%Xu.w.c.T.T./.E.Y.n.n.n.n.b.n.n.n.n.c.n.n.x.x.b.c.c.c.c.x.x.c.x.r.r.x.u.u.x.=.z ^ ~ ' / t = L 8.8.i.S.m.X.",
"} J #.8.] F.1.v.=X5X5XoXE._.=X<X<X<X<X<X<X<X<X<X<X<X<X<X<X>X<X<X<X>X,X>X>X>X>X>X>X>X>X>X>X>X>X<X-X|.x.O.~ ' O.0 = L 8.i.g.A.M.X.",
"} y _ 8.4.G.2.e. X1X>X).Y.{.,X5X4X4X5X4X5X5X5X5X4X5X5X5X5X5X5X5X5X6X6X5X6X6X6X6X6X6X6X6X6X6X6X6X5X;XW.@.~ ' o.0 = L { 3.8.F.m...",
"} J #.j.K.$X2.q.'.;X&X~.e.e.U.~.~.^.~.^.~.~.~.^.^.^.^.^.^.^.^.^.^.^.^.^.^.^.^.^._.^.^.'.^._.'.'.'.~.v.@.~ ' | 9 1 L 5.B.H.L.M.X.",
"} e ' M.L.$X2.q.Q.[.^.I.q.B D y.P.G G P.G G G G G G G G G G G G G G G G G G G G G G G G G G G G G z.z.$.~ ' ` w & J 5.F.@X+XM...",
"h q ( 8.B.L.2.N G P.S F e.e.Y.Q.Q.E.!.!.Q.Q.!.!.!.!.!.!.!.!.!.!.!.!.!.Q.!.!.Q.Q.Q.Q.!.Q.Q.Q.!.!.!.R.x.O.~ ' / w % H [ N.H.L.M...",
"h e ' a.8.J.>.A y.Z V y.e.q.t.u.b.b.n.b.T.n.n.n./.T./.T.T././.(././.E.T././././.T.(.E./././.E./.(.x.&.W ( _ o.r = H { h.k.H.M.X.",
"z e 6.A.5.H.>.w.~.~.).Y.c : o + o o o X X X X o X X X X o o o . X @ @ o @ @ @ @ # # # # # : @ > > > = H ) _ o.r = L g.F.h.F.M.X.",
"E H ' g.{ H. .p n u.u.z * & 2 0 4 w 0 1 + & 0 4 4 4 4 4 0 4 6 % # & 4 4 4 3 3 4 0 w = # + & 4 3 = 4 q P ~ _ } e = Y 8.h.g.A.m...",
"h e ! 4.k.L.s.a < > > : = K U U U ( ` Y 0 q U U I U I U I I T 1 = H I I I I I I I ( y = = K I I I I U U ) ( R 2 = L { 8.Z.J.m...",
"a e U 5.J.$XM.Y + + % 4 L ! ! ~ ~ ] ( Y 4 H ~ ~ ! ~ ~ ~ ~ ~ Q w - K ~ ~ ~ ! ~ ~ ~ { L = - P ~ ~ ! ! ~ ~ ] ! T 2 & e ] g.J.+Xm.| ",
"a 0 L ' M.Z.s.h = 4 4 P U ! U ! U U U J 0 H ~ U ! ! ! U ~ U R r - H U ! ! ! ! ! U ] L = - P U ~ ! ! ! ! U ! L 2 & e ( 8.Z.A.0.z ",
"a = 0 e L / E w = = 4 K K K K K H K H e = 4 K K K K K K K H H - = 4 P K K K K K P U 4 = = H K P K K K K L L e = % 0 H T O.$.W g ",
"a % % % % % % % % % % % % % % % % % % = % % % = & & & & = = = & % = = = = = = & = - = % % = = = 4 = - = = - = & & % - = 2 0 2 t "
};
