/* XPM */
static char *e78ab171ce6a41ebe30820b3230f0b83PMfbE2b2KMELkXsJ[] = {
/* columns rows colors chars-per-pixel */
"64 64 10 1 ",
"  c None",
". c #FA0000",
"X c #FB3D3D",
"o c #FC5C5C",
"O c #FC6666",
"+ c #0A32FA",
"@ c #FD9999",
"# c #FEC2C2",
"$ c #FED6D6",
"% c white",
/* pixels */
"                       ..................                       ",
"                       ..................                       ",
"                       ..................                       ",
"                       ..................                       ",
"                       ..................                       ",
"              ....................................              ",
"              ....................................              ",
"              ....................................              ",
"              ....................................              ",
"          ............................................          ",
"         ..............................................         ",
"         ..............................................         ",
"         ..............................................         ",
"         ..............................................         ",
"     .............@%%%%%%%%O.................O%%%%%%%%@....     ",
"     .............@%%%%%%%%O.................O%%%%%%%%@....     ",
"     .............@%%%%%%%%O.................O%%%%%%%%@....     ",
"     .............@%%%%%%%%O.................O%%%%%%%%@....     ",
"     .........@@@@$%%%%%%%%#@@@@.........@@@@#%%%%%%%%$@@@@     ",
"     .........%%%%%%%%%%%%%%%%%%.........%%%%%%%%%%%%%%%%%%     ",
"     .........%%%%%%%%%%%%%%%%%%.........%%%%%%%%%%%%%%%%%%     ",
"     .........%%%%%%%%%%%%%%%%%%.........%%%%%%%%%%%%%%%%%%     ",
"     .........%%%%%%%%%%%%%%%%%%.........%%%%%%%%%%%%%%%%%%     ",
"     .........%%%%%%%%%+++++++++.........%%%%%%%%%+++++++++     ",
"     .........%%%%%%%%%+++++++++.........%%%%%%%%%+++++++++     ",
"     .........%%%%%%%%%+++++++++.........%%%%%%%%%+++++++++     ",
"     .........%%%%%%%%%+++++++++.........%%%%%%%%%+++++++++     ",
" .............%%%%%%%%%+++++++++.........%%%%%%%%%+++++++++.... ",
"..............%%%%%%%%%+++++++++.........%%%%%%%%%+++++++++.....",
"..............%%%%%%%%%+++++++++.........%%%%%%%%%+++++++++.....",
"..............%%%%%%%%%+++++++++.........%%%%%%%%%+++++++++.....",
"..............%%%%%%%%%+++++++++.........%%%%%%%%%+++++++++.....",
"..................@%%%%%%%%O.................O%%%%%%%%@.........",
"..................@%%%%%%%%O.................O%%%%%%%%@.........",
"..................@%%%%%%%%O.................O%%%%%%%%@.........",
"..................@%%%%%%%%O.................O%%%%%%%%@.........",
"..................o@@@@@@@@X.................X@@@@@@@@o.........",
"................................................................",
"................................................................",
"................................................................",
"................................................................",
"................................................................",
"................................................................",
"................................................................",
"................................................................",
"................................................................",
"................................................................",
"................................................................",
"................................................................",
"................................................................",
"................................................................",
"................................................................",
"................................................................",
"................................................................",
"................................................................",
"..................     ..................     ..................",
"..................     ..................     ..................",
"..................     ..................     ..................",
"..................     ..................     ..................",
"     .........             ..........             .........     ",
"     .........             ..........             .........     ",
"     .........             ..........             .........     ",
"     .........             ..........             .........     ",
"     .........              ........              .........     "
};
