/* XPM */
static char *ac452c5158804cb497d85fa0710efa0czMI6RIUAS2gkAPN4[] = {
/* columns rows colors chars-per-pixel */
"64 64 146 2 ",
"   c None",
".  c #DF051C",
"X  c #DE061D",
"o  c #F50105",
"O  c #F60104",
"+  c #F90001",
"@  c #FA0000",
"#  c #FA0001",
"$  c #FA0101",
"%  c #FA0202",
"&  c #FA0303",
"*  c #FA0404",
"=  c #FA0505",
"-  c #FA0606",
";  c #FA0909",
":  c #FA0A0A",
">  c #FA0B0B",
",  c #FA0C0C",
"<  c #FA0E0E",
"1  c #E50516",
"2  c #EB0A16",
"3  c #E1051B",
"4  c #FA1313",
"5  c #FA1515",
"6  c #F81517",
"7  c #FA1616",
"8  c #FA1717",
"9  c #FB1818",
"0  c #FB1B1B",
"q  c #FB1E1E",
"w  c #CE092E",
"e  c #CF092E",
"r  c #D40828",
"t  c #FA2020",
"y  c #FB2222",
"u  c #FB2424",
"i  c #FB2525",
"p  c #FB2727",
"a  c #FB2828",
"s  c #FB2B2B",
"d  c #FB2D2D",
"f  c #FB2E2E",
"g  c #FB2F2F",
"h  c #FB3131",
"j  c #FB3636",
"k  c #FB3838",
"l  c #FB3B3B",
"z  c #FB3C3C",
"x  c #FB3D3D",
"c  c #FB4444",
"v  c #FA4445",
"b  c #FB4545",
"n  c #FB4747",
"m  c #FC4F4F",
"M  c #FC5050",
"N  c #FC5252",
"B  c #D04166",
"V  c #CF597E",
"C  c #FB6162",
"Z  c #FC6161",
"A  c #FC6464",
"S  c #FC6E6E",
"D  c #FC6F6F",
"F  c #FC7373",
"G  c #FC7676",
"H  c #FC7777",
"J  c #FD7878",
"K  c #FC7D7D",
"L  c #FC7E7E",
"P  c #731C8D",
"I  c #6E1D91",
"U  c #6E1D92",
"Y  c #3529CD",
"T  c #2E2BD5",
"R  c #282CDB",
"E  c #0E31F6",
"W  c #0B32F9",
"Q  c #0A32FA",
"!  c #1231F2",
"~  c #1233F4",
"^  c #1233F6",
"/  c #1237F8",
"(  c #1238FA",
")  c #173DFA",
"_  c #1E43FA",
"`  c #6661DD",
"'  c #526DFB",
"]  c #526EFC",
"[  c #5B76FC",
"{  c #6F86FC",
"}  c #6F87FC",
"|  c #748BFC",
" . c #FC8888",
".. c #FD8A8A",
"X. c #FC8B8B",
"o. c #FD8C8C",
"O. c #FC9191",
"+. c #FD9797",
"@. c #FD9E9E",
"#. c #9AAAFD",
"$. c #D2B3D7",
"%. c #BDC8FD",
"&. c #BEC9FD",
"*. c #FEC1C1",
"=. c #FEC2C2",
"-. c #FDC4C4",
";. c #FECBCB",
":. c #FECDCD",
">. c #FDCECF",
",. c #FECFCF",
"<. c #FED0D0",
"1. c #FED1D1",
"2. c #FEDBDB",
"3. c #FFDCDC",
"4. c #D2D0F4",
"5. c #D0D8FE",
"6. c #D2DAFE",
"7. c #D5DCFE",
"8. c #E9CEE0",
"9. c #FEE0E0",
"0. c #FEE1E1",
"q. c #FEE4E4",
"w. c #E5E9FE",
"e. c #E7EAFE",
"r. c #E7EAFF",
"t. c #E8ECFF",
"y. c #FEF2F3",
"u. c #FFF3F3",
"i. c #FFF5F5",
"p. c #FFF6F6",
"a. c #FFF7F7",
"s. c #F1F3FF",
"d. c #F3F5FF",
"f. c #FFF9F9",
"g. c #F8F9FF",
"h. c #F9FAFF",
"j. c #FAFBFF",
"k. c #FBFBFF",
"l. c #FBFCFF",
"z. c #FFFCFC",
"x. c #FFFDFD",
"c. c #FCFCFF",
"v. c #FFFEFE",
"b. c #FEFEFF",
"n. c #FEFFFF",
"m. c white",
/* pixels */
"                                              @ @ @ @ @ @ @ @ @ @ @ @ @ @ @ @ @ @                                               ",
"                                              @ @ @ @ @ @ @ @ @ @ @ @ @ @ @ @ @ @                                               ",
"                                              @ @ @ @ @ @ @ @ @ @ @ @ @ @ @ @ @ @                                               ",
"                                              @ @ @ @ @ @ @ @ @ @ @ @ @ @ @ @ @ @                                               ",
"                                              @ @ @ @ @ @ @ @ @ @ @ @ @ @ @ @ @ @                                               ",
"                            @ @ @ @ @ @ @ @ @ @ @ @ @ @ @ @ @ @ @ @ @ @ @ @ @ @ @ @ @ @ @ @ @ @ @ @                             ",
"                            @ @ @ @ @ @ @ @ @ @ @ @ @ @ @ @ @ @ @ @ @ @ @ @ @ @ @ @ @ @ @ @ @ @ @ @                             ",
"                            @ @ @ @ @ @ @ @ @ @ @ @ @ @ @ @ @ @ @ @ @ @ @ @ @ @ @ @ @ @ @ @ @ @ @ @                             ",
"                            @ @ @ @ @ @ @ @ @ @ @ @ @ @ @ @ @ @ @ @ @ @ @ @ @ @ @ @ @ @ @ @ @ @ @ @                             ",
"                          @ @ @ @ @ @ @ @ @ @ @ @ @ @ @ @ @ @ @ @ @ @ @ @ @ @ @ @ @ @ @ @ @ @ @ @ @ @                           ",
"                  @ @ @ @ @ @ @ @ @ @ @ @ @ @ @ @ @ @ @ @ @ @ @ @ @ @ @ @ @ @ @ @ @ @ @ @ @ @ @ @ @ @ @ @ @ @                   ",
"                  @ @ @ @ @ @ @ @ @ @ @ @ @ @ @ @ @ @ @ @ @ @ @ @ @ @ @ @ @ @ @ @ @ @ @ @ @ @ @ @ @ @ @ @ @ @                   ",
"                  @ @ @ @ @ @ @ @ @ @ @ @ @ @ @ @ @ @ @ @ @ @ @ @ @ @ @ @ @ @ @ @ @ @ @ @ @ @ @ @ @ @ @ @ @ @                   ",
"                  @ @ @ @ @ @ @ @ - 9 i i y i i i i y < @ @ @ @ @ @ @ @ @ @ @ @ @ @ @ @ @ < q i i i y i y i y                   ",
"          @ @ @ @ @ @ @ @ @ @ @ @ 9 J @.@.@.@.@.@.@.+.z @ @ @ @ @ @ @ @ @ @ @ @ @ @ @ @ @ h  .@.@.@.@.@.@.@. .l @ @ @           ",
"        @ @ @ @ @ @ @ @ @ @ @ @ @ i *.m.m.m.m.m.m.m.y.Z @ @ @ @ @ @ @ @ @ @ @ @ @ @ @ @ @ m 2.m.m.m.m.m.m.m.<.b @ @ @ @         ",
"        @ @ @ @ @ @ @ @ @ @ @ @ @ a *.m.m.m.m.m.m.m.y.Z @ @ @ @ @ @ @ @ @ @ @ @ @ @ @ @ @ m 2.m.m.m.m.m.m.m.,.b @ @ @ @         ",
"        @ @ @ @ @ @ @ @ @ @ @ - - d *.m.m.m.m.m.m.m.y.A @ - - @ @ @ @ @ @ @ @ @ @ @ - @ - N 2.m.m.m.m.m.m.m.<.b @ - @ -         ",
"        @ @ @ @ @ @ @ @ - q b b b Z <.m.m.m.m.m.m.m.a.X.b b b z - @ @ @ @ @ @ @ @ l c c b K 9.m.m.m.m.m.m.m.2.H b b b b         ",
"        @ @ @ @ @ @ @ @ 5 H m.m.m.m.m.m.m.m.m.m.m.m.m.m.m.m.m.9.9 @ @ @ @ @ @ @ @ ;.m.m.m.m.m.m.m.m.m.m.m.m.m.m.m.m.m.m.        ",
"        @ @ @ @ @ @ @ @ 4 H m.m.m.m.m.m.m.m.m.m.m.m.m.m.m.m.m.9.5 @ @ @ @ @ @ @ @ ;.m.m.m.m.m.m.m.m.m.m.m.m.m.m.m.m.m.m.        ",
"        @ @ @ @ @ @ @ @ 4 H m.m.m.m.m.m.m.m.m.m.m.m.m.m.m.m.m.9.9 @ @ @ @ @ @ @ @ ;.m.m.m.m.m.m.m.m.m.m.m.m.m.m.m.m.m.m.        ",
"        @ @ @ @ @ @ @ @ 4 H m.m.m.m.m.m.m.m.g.r.r.r.r.r.r.r.r.8.6 @ @ @ @ @ @ @ @ ;.f.m.m.m.m.m.m.m.s.r.r.r.r.r.r.r.r.r.        ",
"        @ @ @ @ @ @ @ @ 4 H m.m.m.m.m.m.m.l.5.] ] ] ] ] ] ] ] ` 2 @ @ @ @ @ @ @ @ ;.m.m.m.m.m.m.m.m.#.[ ] ] ] ] ] ] ] ]         ",
"        @ @ @ @ @ @ @ @ 4 H m.m.m.m.m.m.m.g.&.W Q Q Q Q Q Q Q R 3 @ @ @ @ @ @ @ @ ;.m.m.m.m.m.m.m.g.{ ) Q Q Q Q W W Q Q         ",
"        @ @ @ @ @ @ @ @ 4 H m.m.m.m.m.m.m.g.&.W Q Q Q Q Q Q Q R 1 @ @ @ @ @ @ @ @ ;.m.m.m.m.m.m.m.g.{ ) Q Q Q Q Q W Q Q         ",
"        @ @ @ @ @ @ @ @ 4 H m.m.m.m.m.m.m.g.%.Q Q Q Q Q Q Q Q R 1 @ @ @ @ @ @ @ @ ;.f.m.m.m.m.m.m.g.{ ) Q Q Q Q Q Q Q E         ",
"        @ @ @ @ @ @ @ @ 4 H m.m.m.m.m.m.m.g.%.W Q Q Q Q Q Q Q R 1 @ @ @ @ @ @ @ @ ;.m.m.m.m.m.m.m.l.{ ) Q Q Q Q Q Q Q Y         ",
"@ @ @ @ @ @ @ @ @ @ @ @ 4 H m.m.m.m.m.m.m.g.&.W Q Q Q Q Q Q Q R 1 @ @ @ @ @ @ @ @ ;.m.m.m.m.m.m.m.l.} ) Q Q Q Q Q Q W U X @ @ @ ",
"@ @ @ @ @ @ @ @ @ @ @ @ 4 H m.m.m.m.m.m.m.g.&.W Q Q Q Q Q Q W R 1 O @ @ @ @ @ @ @ ;.m.m.m.m.m.m.m.g.} ) Q Q Q Q Q Q Q U X @ @ @ ",
"@ @ @ @ @ @ @ @ @ @ @ @ 4 H m.m.m.m.m.m.m.g.&.W Q Q Q W Q W W R 1 @ @ @ @ @ @ @ @ ;.z.m.m.m.m.m.m.g.} ) Q Q W W Q Q W U X @ @ @ ",
"@ @ @ @ @ @ @ @ @ @ @ @ 4 F a.a.a.f.m.m.m.g.&.( ( ( ( E ~ ! ! T 3 @ @ @ @ @ @ @ @ *.a.a.a.f.m.m.m.k.| _ ( ( / ~ ! ~ ! P X @ @ @ ",
"@ @ @ @ @ @ @ @ @ @ @ @ - 5 d h g m ,.m.m.m.s.6.6.6.4.V w w w r O @ @ @ @ @ @ @ @ i d h h D 9.m.m.m.r.6.6.6.$.B w w w 3 O @ @ @ ",
"@ @ @ @ @ @ @ @ @ @ @ @ @ @ @ @ @ i *.m.m.m.m.m.m.m.y.C @ @ @ @ @ @ @ @ @ @ @ @ @ @ @ @ @ M 2.m.m.m.m.m.m.m.>.v @ O O @ @ @ @ @ ",
"@ @ @ @ @ @ @ @ @ @ @ @ @ @ @ @ @ a *.m.m.m.m.m.m.m.a.C @ @ @ @ @ @ @ @ @ @ @ @ @ @ @ @ @ m 2.m.m.m.m.m.m.m.,.c @ @ @ @ @ @ @ @ ",
"@ @ @ @ @ @ @ @ @ @ @ @ @ @ @ @ @ p *.m.m.m.m.m.m.m.y.Z @ @ @ @ @ @ @ @ @ @ @ @ @ @ @ @ @ M 2.m.m.m.m.m.m.m.,.b @ @ @ @ @ @ @ @ ",
"@ @ @ @ @ @ @ @ @ @ @ @ @ @ @ @ @ 8 D O.O.O.O.O.O.O.X.k @ @ @ @ @ @ @ @ @ @ @ @ @ @ @ @ @ d K O.O.O.O.O.O.O.H i @ @ @ @ @ @ @ @ ",
"@ @ @ @ @ @ @ @ @ @ @ @ @ @ @ @ @ @ : < : < < : : > > - @ @ @ @ @ @ @ @ @ @ @ @ @ @ @ @ @ * : < < : : < : < < @ @ @ @ @ @ @ @ @ ",
"@ @ @ @ @ @ @ @ @ @ @ @ @ @ @ @ @ @ @ @ @ @ @ @ @ @ @ @ @ @ @ @ @ @ @ @ @ @ @ @ @ @ @ @ @ @ @ @ @ @ @ @ @ @ @ @ @ @ @ @ @ @ @ @ ",
"@ @ @ @ @ @ @ @ @ @ @ @ @ @ @ @ @ @ @ @ @ @ @ @ @ @ @ @ @ @ @ @ @ @ @ @ @ @ @ @ @ @ @ @ @ @ @ @ @ @ @ @ @ @ @ @ @ @ @ @ @ @ @ @ ",
"@ @ @ @ @ @ @ @ @ @ @ @ @ @ @ @ @ @ @ @ @ @ @ @ @ @ @ @ @ @ @ @ @ @ @ @ @ @ @ @ @ @ @ @ @ @ @ @ @ @ @ @ @ @ @ @ @ @ @ @ @ @ @ @ ",
"@ @ @ @ @ @ @ @ @ @ @ @ @ @ @ @ @ @ @ @ @ @ @ @ @ @ @ @ @ @ @ @ @ @ @ @ @ @ @ @ @ @ @ @ @ @ @ @ @ @ @ @ @ @ @ @ @ @ @ @ @ @ @ @ ",
"@ @ @ @ @ @ @ @ @ @ @ @ @ @ @ @ @ @ @ @ @ @ @ @ @ @ @ @ @ @ @ @ @ @ @ @ @ @ @ @ @ @ @ @ @ @ @ @ @ @ @ @ @ @ @ @ @ @ @ @ @ @ @ @ ",
"@ @ @ @ @ @ @ @ @ @ @ @ @ @ @ @ @ @ @ @ @ @ @ @ @ @ @ @ @ @ @ @ @ @ @ @ @ @ @ @ @ @ @ @ @ @ @ @ @ @ @ @ @ @ @ @ @ @ @ @ @ @ @ @ ",
"@ @ @ @ @ @ @ @ @ @ @ @ @ @ @ @ @ @ @ @ @ @ @ @ @ @ @ @ @ @ @ @ @ @ @ @ @ @ @ @ @ @ @ @ @ @ @ @ @ @ @ @ @ @ @ @ @ @ @ @ @ @ @ @ ",
"@ @ @ @ @ @ @ @ @ @ @ @ @ @ @ @ @ @ @ @ @ @ @ @ @ @ @ @ @ @ @ @ @ @ @ @ @ @ @ @ @ @ @ @ @ @ @ @ @ @ @ @ @ @ @ @ @ @ @ @ @ @ @ @ ",
"@ @ @ @ @ @ @ @ @ @ @ @ @ @ @ @ @ @ @ @ @ @ @ @ @ @ @ @ @ @ @ @ @ @ @ @ @ @ @ @ @ @ @ @ @ @ @ @ @ @ @ @ @ @ @ @ @ @ @ @ @ @ @ @ ",
"@ @ @ @ @ @ @ @ @ @ @ @ @ @ @ @ @ @ @ @ @ @ @ @ @ @ @ @ @ @ @ @ @ @ @ @ @ @ @ @ @ @ @ @ @ @ @ @ @ @ @ @ @ @ @ @ @ @ @ @ @ @ @ @ ",
"@ @ @ @ @ @ @ @ @ @ @ @ @ @ @ @ @ @ @ @ @ @ @ @ @ @ @ @ @ @ @ @ @ @ @ @ @ @ @ @ @ @ @ @ @ @ @ @ @ @ @ @ @ @ @ @ @ @ @ @ @ @ @ @ ",
"@ @ @ @ @ @ @ @ @ @ @ @ @ @ @ @ @ @ @ @ @ @ @ @ @ @ @ @ @ @ @ @ @ @ @ @ @ @ @ @ @ @ @ @ @ @ @ @ @ @ @ @ @ @ @ @ @ @ @ @ @ @ @ @ ",
"@ @ @ @ @ @ @ @ @ @ @ @ @ @ @ @ @ @ @ @ @ @ @ @ @ @ @ @ @ @ @ @ @ @ @ @ @ @ @ @ @ @ @ @ @ @ @ @ @ @ @ @ @ @ @ @ @ @ @ @ @ @ @ @ ",
"@ @ @ @ @ @ @ @ @ @ @ @ @ @ @ @ @ @ @ @ @ @ @ @ @ @ @ @ @ @ @ @ @ @ @ @ @ @ @ @ @ @ @ @ @ @ @ @ @ @ @ @ @ @ @ @ @ @ @ @ @ @ @ @ ",
"@ @ @ @ @ @ @ @ @ @ @ @ @ @ @ @ @ @ @ @ @ @ @ @ @ @ @ @ @ @ @ @ @ @ @ @ @ @ @ @ @ @ @ @ @ @ @ @ @ @ @ @ @ @ @ @ @ @ @ @ @ @ @ @ ",
"@ @ @ @ @ @ @ @ @ @ @ @ @ @ @ @ @ @ @ @ @ @ @ @ @ @ @ @ @ @ @ @ @ @ @ @ @ @ @ @ @ @ @ @ @ @ @ @ @ @ @ @ @ @ @ @ @ @ @ @ @ @ @ @ ",
"@ @ @ @ @ @ @ @ @         @ @ @ @ @ @ @ @ @ @ @ @ @ @ @                 @ @ @ @ @ @ @ @ @ @ @ @ @ @ @         @ @ @ @ @ @ @ @ @ ",
"@ @ @ @ @ @ @ @ @           @ @ @ @ @ @ @ @ @ @ @ @ @                     @ @ @ @ @ @ @ @ @ @ @ @ @           @ @ @ @ @ @ @ @ @ ",
"@ @ @ @ @ @ @ @ @           @ @ @ @ @ @ @ @ @ @ @ @ @                     @ @ @ @ @ @ @ @ @ @ @ @ @           @ @ @ @ @ @ @ @ @ ",
"@ @ @ @ @ @ @ @ @           @ @ @ @ @ @ @ @ @ @ @ @ @                     @ @ @ @ @ @ @ @ @ @ @ @ @           @ @ @ @ @ @ @ @ @ ",
"@ @ @ @ @ @ @ @             @ @ @ @ @ @ @ @ @ @ @ @ @                     @ @ @ @ @ @ @ @ @ @ @ @ @             @ @ @ @ @ @ @ @ ",
"@ @ @ @                             @ @ @ @ @ @ @ @ @                     @ @ @ @ @ @ @ @ @                           @ @ @ @ @ ",
"@ @ @ @                             @ @ @ @ @ @ @ @ @                     @ @ @ @ @ @ @ @ @                             @ @ @ @ ",
"@ @ @ @                             @ @ @ @ @ @ @ @ @                     @ @ @ @ @ @ @ @ @                             @ @ @ @ ",
"@ @ @ @                             @ @ @ @ @ @ @ @ @                     @ @ @ @ @ @ @ @ @                             @ @ @ @ ",
"@ @ @ @                             @ @ @ @ @ @ @ @ @                     @ @ @ @ @ @ @ @ @                             @ @ @ @ "
};
