/* XPM */
static char *_ab99685def9469799e8bde2b0336d46pVUxWA7Ibd2QksQH[] = {
/* columns rows colors chars-per-pixel */
"64 64 143 2 ",
"   c #115200",
".  c #175901",
"X  c #1A5C01",
"o  c #1E6203",
"O  c #236401",
"+  c #256A04",
"@  c #2B6C01",
"#  c #306F00",
"$  c #2C7306",
"%  c #2F7708",
"&  c #2F7808",
"*  c #317100",
"=  c #367903",
"-  c #397D04",
";  c #347E09",
":  c #347E08",
">  c #377F08",
",  c #367F09",
"<  c #347D08",
"1  c #327B08",
"2  c #3B8005",
"3  c #3A8006",
"4  c #3C8005",
"5  c #3C8105",
"6  c #3C8205",
"7  c #3D8205",
"8  c #3D8306",
"9  c #3E8306",
"0  c #3C8407",
"q  c #3E8406",
"w  c #3F8506",
"e  c #3F8607",
"r  c #3F8707",
"t  c #3D8306",
"y  c #378109",
"u  c #398309",
"i  c #38820A",
"p  c #39830A",
"a  c #39840A",
"s  c #3A840A",
"d  c #3B850A",
"f  c #3B860A",
"g  c #3B860B",
"h  c #3C8408",
"j  c #3D8608",
"k  c #3C870B",
"l  c #39830A",
"z  c #3C880A",
"x  c #3D880B",
"c  c #3D890B",
"v  c #3E890A",
"b  c #3E8A0B",
"n  c #3F8B0B",
"m  c #3F8C0B",
"M  c #3E8A0B",
"N  c #408707",
"B  c #408707",
"V  c #418807",
"C  c #408808",
"Z  c #418808",
"A  c #418908",
"S  c #408809",
"D  c #428908",
"F  c #418A08",
"G  c #428B08",
"H  c #418B0A",
"J  c #438C09",
"K  c #438C0A",
"L  c #428D0B",
"P  c #428E0B",
"I  c #438E0B",
"U  c #448D09",
"Y  c #458F09",
"T  c #458F0A",
"R  c #408C0C",
"E  c #418C0C",
"W  c #418E0C",
"Q  c #428E0C",
"!  c #428F0C",
"~  c #438F0C",
"^  c #438C0A",
"/  c #46900A",
"(  c #46910A",
")  c #47910B",
"_  c #47930B",
"`  c #43900C",
"'  c #44900C",
"]  c #44910C",
"[  c #44910D",
"{  c #45920C",
"}  c #45920D",
"|  c #45930D",
" . c #46930D",
".. c #46940D",
"X. c #47940D",
"o. c #45920C",
"O. c #48930B",
"+. c #48940B",
"@. c #49950B",
"#. c #49940C",
"$. c #49950C",
"%. c #48950D",
"&. c #49960C",
"*. c #48960D",
"=. c #49970D",
"-. c #4A960C",
";. c #4A970C",
":. c #48960E",
">. c #48970E",
",. c #49970E",
"<. c #49960D",
"1. c #49980E",
"2. c #4A980E",
"3. c #4A990E",
"4. c #4B990E",
"5. c #4B9A0E",
"6. c #4C9A0E",
"7. c #4D9B0E",
"8. c #4D9C0F",
"9. c #4E9C0E",
"0. c #4E9D0E",
"q. c #4F9D0E",
"w. c #4E9D0F",
"e. c #4F9E0E",
"r. c #4F9E0F",
"t. c #4F9F0F",
"y. c #4D9B0E",
"u. c #509E0F",
"i. c #509F0F",
"p. c #509F0F",
"a. c #509F10",
"s. c #509F10",
"d. c #50A00F",
"f. c #50A10F",
"g. c #51A10F",
"h. c #50A00F",
"j. c #50A010",
"k. c #51A010",
"l. c #51A110",
"z. c #52A110",
"x. c #51A210",
"c. c #52A210",
"v. c #52A210",
/* pixels */
"c.c.c.c.g.c.c.U * * * * * * # * * # * * * * # * * * * * * * * * # * c.c.c.=.X   # * * * * * * # * # * * .   >.c.c.c.c.c.$       ",
"c.c.c.c.g. .h < * * * # * * * # * * * * * * * * # * # * * * * * * * / / / Z X X @ * # * * # * * # * @ O     >.s.c.c.c.c.p + .   ",
"c.c.c.c.g.%   X * # * * * * # * * * * * # * # * * * * # * * * # # * * * * * * # * * * * # * * * * @ .       >.c.c.c.c.c.x.x.+   ",
"& 1 1 h N $ O @ * * * * * * * = C C C 9 * * * * * # * * * * * = B C C J J B * * * * * * * * B N O O $ % 1 % w.c.c.c.g 1 } x.p % ",
"      O * * * * * * * * * * * 9 c.c.c.@.* * * * * * # * * * * = g.c.c.c.s.7.= # * * * * * * s.z.    >.c.c.c.c.c.x.x.+   , x.x.x.",
"$ O X @ * * * = 9 9 e = * = 9 U g.7.U B # * # * * * * # * * # = U U c.c.c.u.B B * * * * - h s.z.@ $ 5.c.c.c.c.c.E p $ $ 1 p 2.x.",
"j.C * * * * * N c.c.c.J * e c.c.c.O.* * * * * * * * * * * * * * * * c.c.c.c.u.g.* # # = w.c.z.z.c.c.c.c.c.c.c.c.o   E s.$   E x.",
" .2 * = - - - e R =.c.( - C c.4.R h - 9 - = * * * * # * * * * * * * E ~ c.c.c.c.@ @ - 9 s.c.z.x.c.c.c.c.c.c.R c .   > O.$ . 1 E ",
"* # *  .c.c.c.,   1 c.c.c.c.c.a   $ s.c.c.O.# * # * * # * * # # * #   X c.c.j.c.. . j.j.x.x.x.x.x.x.x.x.x.x..       O # # * X   ",
"* * * C =.w.c.a O % R =.c.4.R ; O , c.s.=.K * * * * # * * * - - - - O + c.j.[ R . . j.j.x.x.} ~ x.x.[ W W W + O . . @ * * * o . ",
"* * * * * J c.c.c.&   & c.a   $ c.c.u.) * * # * * * * * * - c.c.c.c.c.c.c.>..     . c.c.x.x..   s.s.o       >.s.- * * # # # # # ",
"* * * * * - c  .c.&   + b %   o C J #.V # * * * * * # * * = O.-.c.c.c.c.c.5.@ +   . b b c c .   k g + + .   >.x.- * * # # = # # ",
"* * * * * o   % c.&               X # = * * # # * * * # * * * = j.c.g.c.c.c.g.c..                   [ x.o   >.x.- * * * # # # * ",
"* * # * * O . * =.@         . . X O # # * # # # * # # * * * * = =.=. .R J  .[ R o o o o     o o o + ,.x.$ O >.s.= O = - - - = * ",
"* # * * * @ * * * o       X @ @ # # * * * * # = # # * * # # * * * * .   .       1.j.j.1..   | x.s.s.x.x.c.s.x.s.O   h c.s.s.- # ",
"* * * * * * * * * O . . X O = = # * * * * # # # = = = = $ * * * * @ .     .   . 8.j.c.5.o X m 5.x.s.8.2.s.x.z.s.+ . J s.u.6.- # ",
"* * * * * * * * * C c.c.c.c.c.U * * * * * * * - c.c.c.7.* * * * * # * * * * * * s.c.c.c.c.c.X   x.s.X   ~ c.c.c.c.c.c.c.$   O * ",
"* * * * # * * * * -  .=.c.c.c.O.- = * * - - - C c.c.c.7.* * * * * * * * * # * # J  .c.c.c.c.O . >.} O . ~ c.c.c.c.c.=.~ $ . @ * ",
"* * * * * * * * * O   % c.c.c.c.c.( * - c.c.c.c.c.c.c.7.* * * * # * * * * # * #   . c.c.c.c.= # * # * * =.c.c.c.c.c.+   O # # # ",
"* * * * * * * @ # O   $  .=.c.c.c.C @ = c.c.c.c.c.w. .J * * * * # * * * * * * * . X c.s.O. .= * # # * * E O.s.c.c.c.% X O @ = = ",
"* * # * * # * * * * # O . $ c.c.c.i   + c.c.c.c.c. .. . * * * * * * # * * # * # @ * c.w.o . @ # * * * * X . =.c.c.c.w.w.$   h c.",
"* * * * * * * * * # * O   @ c.g.c.i   + c.j.c.c.c.~   . * # * * # * * * * # * * * * c.4.X   @ # * # * * .   =.s.c.c.c.c.$   b c.",
"* * * * * * * * * * * * $ * * O   $ c.c.c.R   X # # * * * # * * # * * * # # * * * * * * # * * * # * * * # * .   [ c.c.c.c.c.c.c.",
"= = = * * * * * * * * * = = = @ . $ >.5.c.[ . O = = = = = * * * * * * * = = * # * * * * * # * * * # * * * * . . [ c.c.c.c.c.c.c.",
"g.c.c.9 * * * * * # # Z c.c.c.c.x.i   + c.j.c.j.c.c.c.c.c.=.* # * # * = g.7.= # # # # # # * * * # * * * * * # * @.c.c.c.j.c.c.c.",
"c.7.=.- * * * # * = = J c.c.c.c.x.i   o 5.8.c.c.c.c.c.c.c.4.= = * * = - c.u.= # = = = = * * * * * # * * * # = = 4.c.c.c.5.4.w.c.",
"g.1 . + * * * * * B u.u.c.c.c.c.x.i     . + c.c.c.c.c.c.c.c.w...* * u.u.c.7.* * 7.w.w.-.= * * * # * * * * * =.7.g.c.c.c.& . R c.",
"c.1   O * * * * * C g.g.c.c.c.c.x.i       O c.u.c.c.c.c.c.c.c.4.* * c.c.c.7.= # s.c.c.u.= # * * * # * * * * 7.c.c.c.c.c.%   m c.",
". O # # * * * * * * = N c.c.g.a       . # O . O * $ .   . + c.c.w.s.c.c.c.c.u.u.c.s.* * * * * * * * * * * * w.c.x.x.@ . O @ * = ",
"  o # * * * * # * * * B u.u.u.i       X # @   X = @ . .   o c.c.c.c.7.s.c.c.c.c.w.7.* = * * * * * # * * # * 7.c.x.x.+   O * * # ",
"# * # * # * * * * * * # * * * * 1 # # # # * * 9 g.c.c.=.  o c.j.c.d.  X c.c.c.c.. . c.c.c.c.= # * # * * # * w.c.x.c.- * * * # # ",
"# * * * * * * * * * * * * * * * # * * * * * * - 7.u.c.=.. o 8.8.c.w.  X c.s.7.4.X X c.c.u.u.= # * * * * * *  .w.x.c.9 = * * * * ",
"* * * * * * * * * # * * * * * * * # * # # * * * = i c.c.>.c X + w.g.  X j.5.o X  ...c.w.- = * * * # * * * * X X  .c.w.7.9 # # * ",
"* * * * * * * * * * * * * * * * * * * * * * * * * = c.c.c.[   X w.d.  . c.>..   w.c.c.w.= * * * * * * * * * .    .c.c.c.e # * * ",
"* e 7.7.7.9 * * * * * * * * * * * # * # # * * * * @ X + c.s.=.C o X     X .     s.7.X o @ * * * * * O.7.7.7.* @ o X R c.u.7.- * ",
"* C c.c.g.B * * * # # * * * * * * * * # * * * * # @   . c.c.c.=..               7.w.    @ * * * * * 7.g.c.c.= @ .   c c.g.c.- # ",
"g.g.c.@   O # * * * * * * * * # * * * * * * * * # * * * * @         # # $ @ * $ * * # * * * =.c.* * .   ~ c.j.s.= # O.c.c.c.- * ",
"c.g.s.+ . O * * * * * * * * * * * # * * * * = * * * # * # @         * * * # * # * * * * # * =.s.* * . . R w.c.j.- * O.c.c.c.- = ",
"c.; o y  .=.4.B * B 7.e * * * * * * * - 7.7.-.-.7.O.* * * # @ @ @ @ * * * * * # * * # * * * O X 7.7. . .+ o 5.c.w.7.g.c.c.c.w.4.",
"c.&   g c.c.g.U * C g.G * * * * * * * - c.c.c.c.c.-.* # * * # * # # * * * # * * * * * * * #     u.c.g.c.O   >.c.g.g.c.c.c.c.g.g.",
"o ; R 5.c.U - = * J c.7.=.B * # * - =.-.c.c.c.=.- = * * * # * * # * # * * # * # * * * = U =.@ @ g.c.c.c. .~ g.g.c.c.c.c., o  .c.",
"  1 c.c.c.b * # * C c.c.c./ * * * B c.c.c.c.g.O.* * * # * * * * # * * * * * * * * * * * w.c.- * g.c.c.c.c.c.c.g.c.c.c.c.$   c c.",
"  1 c.% X O * # * C c.c.c.u.7.C * B u.c.c. .X O # * * * # * # * * * * * * # * * * * u.u.c.c.= * X o =.c.c.c.- = O X c c.9 @ 1 = ",
"  1 j.+   O * * * B c.c.c.c.g.U * 9 c.c.c.R   X * * * * * * * * # * * * * * * * * * g.u.c.c.= @   .  .c.c.c.= @ X   h c.9 * * # ",
"@ O O @ @ # * * * @ o , c.C o @ # @ o % c.7.R  .=.@.=./ * * * * * * -.-.-.-.-.-.= * c.c.c.c.O . R [ w.g.c.c.= # @ @ = - * * * * ",
"* X   O # * * # # o   % c.i   X * O   + c.c.c.c.c.c.g.7.* * * * * * c.g.c.c.c.c.= * c.c.c.c.X   d.c.c.c.c.c.= * @ * # # * * # * ",
"* @ O @ * * * * * @ + * 9 1 O O X @ b R c.c.c.c.c.=.+ + * * * * * * 9 B c.c.c.c.#.U + @ 5.c.E g c.c.c.c.1 + # * * * * * * * * * ",
"* * * * * * * * * * * * # # $ O   @ c.c.c.c.c.c.g.[   . * * * * * * * = c.c.c.c.g.u.  X >.c.c.c.c.c.c.c.o   @ * * * * * * * * * ",
"* * * * * * * * * * * * * - ..( c ; + o + o + + 2 = + @ * * * * * * # # O $ 7.c.c.5.  . o o 5.c.c.w.$ + O + # * * * * * * * * * ",
"* * # * * * * * * * * * # 9 c.c.c.i           X * * * # * * * * * * # @   X 4.c.c.5.        >.c.c.w.X   @ * # * * # * * * * * # ",
"* * * * * h O.h * * * 9 ( 4.c.c.c.i   o b b b a * * # * * * * * * # * $ O + + + s.s.b b b b s.c.+ O + O # * # # * * * # * # * * ",
"* * * * * J c.C * * * C c.c.c.c.j.i   + c.c.c...* * * # * * * * * * * * * @     5.c.c.c.c.c.c.c.  . @ * * * * * * * * * # * * * ",
"* * * * * $ $ , U - * B c.c.c.R $ % i c c.O.$ $ * * * * * * # * * * * * * * , i s.c.c.c.c.c.c.c.y y J J = $ * * * * * * * * * * ",
"* * * * # o   $ c.C * B c.c.c.a   $ j.j.c.E   X * * * * * * * * * * * * * = w.c.c.c.c.c.j.j.c.c.c.c.c.j.= * * * * * * * * * # * ",
"# 9 U U U @   $ c.7.U 7.c.c.c.=.i R c.>.@ % y a U B * * * = U B * # * = ~ ( j.c.j.8.$ $ @ $ 7.c.c.s.1 $ * * * # # * # * * # * * ",
"* C g.c.g.1   $ c.g.c.c.c.c.c.c.c.c.c.b   o c.c.c.=.* * * - g.7.= # # = c.c.c.c.c.5.        =.c.c.s.X   @ * * * * * * * * * * * ",
"R ; @ [ c.~ i  .c.c.c.c.c.c.c.c.c.c.c.4.i c c. .$ @ * # * # $ % J U U O.c.w.$ @ w.g.i 2 + O - e 9 9 @ O # * * * * * * * * * * * ",
"c.%   g c.c.c.c.c.c.c.c.c.c.c.c.c.c.c.c.c.c.c.a   . * * * O   o w.c.c.c.c.=..   w.c.c.w.= * * * # * # * * * * * * * * * # * * * ",
"c.1   + 1 R c.c.c.R 1 b c. .% h c.c.c.c.c.4.1 1 1 1 C h O O 1 - u.c.c.c.x.w., 1 w.g.C e * * * * * * * * * * * * e C = # * * 9 C ",
"c.%       , c.c.c.1   % c.i   $ c.c.c.c.c.R   + c.c.c.>.  o c.c.c.c.c.c.x.x.x.x.c.w.* * * * * * * # * * * * * * @.c.9 * * * @.c.",
"c.%   X X h c.O.- @ X 1 U , X @ y R c.w.U 9 X % c.w.i 1 X O i i - i U O.x.z.z.z.c.w.e 9 B B O O * * 9 9 B 9 O O O.c.1 O 1 B -.g.",
"c.%   O # J c.,   o # # * * # O   $ c.O.# * * - c.R   . # @         # = x.x.z.z.c.s.c.c.g.g.X   @ = 7.g.c.c.X   ~ c.O   < g.c.g.",
"% 1 1 h J Z Z = O O * * * * * @ O @ e 9 * * * = B - O O * @ O + 1 , E h $ % % % s.s.% = B B + O # # $ % -.c.i 1 7.c.g , O.c.c.c.",
"  1 c.c.c.Z * * * * * * * * * # * * * # * * * * * * # # * # # = s.x.c.>.        w.w.    @ # * * * @ .   ~ c.c.c.c.c.c.c.c.c.c.c."
};
