/* XPM */
static char *f8958f5d56874e8ff3e751894989eb74O705xpfLSDMG3vPr[] = {
/* columns rows colors chars-per-pixel */
"64 64 2 1 ",
"  c None",
". c #FAF200",
/* pixels */
"                    ........................                    ",
"                    ........................                    ",
"                    ........................                    ",
"                    ........................                    ",
"                    ........................                    ",
"          ............................................          ",
"          ............................................          ",
"          ............................................          ",
"          ............................................          ",
"          ............................................          ",
"     ......................................................     ",
"     ......................................................     ",
"     ......................................................     ",
"     ......................................................     ",
"     ......................................................     ",
"     ......................................................     ",
"     ......................................................     ",
"     ......................................................     ",
"     ......................................................     ",
"     ......................................................     ",
".................................................               ",
".................................................               ",
".................................................               ",
".................................................               ",
".................................................               ",
"..................................                              ",
"..................................                              ",
"..................................                              ",
"..................................                              ",
"..................................                              ",
"....................                                            ",
"....................                                            ",
"....................                                            ",
"....................                                            ",
"..................................                              ",
"..................................                              ",
"..................................                              ",
"..................................                              ",
"..................................                              ",
".................................................               ",
".................................................               ",
".................................................               ",
".................................................               ",
".................................................               ",
"     ......................................................     ",
"     ......................................................     ",
"     ......................................................     ",
"     ......................................................     ",
"     ......................................................     ",
"     ......................................................     ",
"     ......................................................     ",
"     ......................................................     ",
"     ......................................................     ",
"     ......................................................     ",
"          ............................................          ",
"          ............................................          ",
"          ............................................          ",
"          ............................................          ",
"          ............................................          ",
"                    ........................                    ",
"                    ........................                    ",
"                    ........................                    ",
"                    ........................                    ",
"                    ........................                    "
};
