/* XPM */
static char *ee0614f2160c424ea58768ad366adb27kNNbjhz89na8UhQF[] = {
/* columns rows colors chars-per-pixel */
"64 64 2 1 ",
"  c None",
". c #FAF200",
/* pixels */
"                    ........................                    ",
"                    ........................                    ",
"                    ........................                    ",
"                    ........................                    ",
"                    ........................                    ",
"          ............................................          ",
"          ............................................          ",
"          ............................................          ",
"          ............................................          ",
"          ............................................          ",
"     ......................................................     ",
"     ......................................................     ",
"     ......................................................     ",
"     ......................................................     ",
"     ......................................................     ",
"     ......................................................     ",
"     ......................................................     ",
"     ......................................................     ",
"     ......................................................     ",
"     ......................................................     ",
"..............................    ..............................",
"..............................    ..............................",
"..............................    ..............................",
"..............................    ..............................",
"..............................    ..............................",
"..............................    ..............................",
"..............................    ..............................",
"..............................    ..............................",
"..............................    ..............................",
"..............................    ..............................",
"..............................    ..............................",
"..............................    ..............................",
"..............................    ..............................",
"..............................    ..............................",
".........................              .........................",
".........................              .........................",
".........................              .........................",
".........................              .........................",
".........................              .........................",
".........................              .........................",
".........................              .........................",
".........................              .........................",
".........................              .........................",
".........................              .........................",
"     ....................              ....................     ",
"     ....................              ....................     ",
"     ....................              ....................     ",
"     ....................              ....................     ",
"     ....................              ....................     ",
"     ...............                        ...............     ",
"     ...............                        ...............     ",
"     ...............                        ...............     ",
"     ...............                        ...............     ",
"     ...............                        ...............     ",
"          ..........                        ..........          ",
"          ..........                        ..........          ",
"          ..........                        ..........          ",
"          ..........                        ..........          ",
"          ..........                        ..........          ",
"                                                                ",
"                                                                ",
"                                                                ",
"                                                                ",
"                                                                "
};
