/* XPM */
static char *_e87917e347a480785572bb8ccce7c54bx4HWbvgnQlmGjdp[] = {
/* columns rows colors chars-per-pixel */
"64 64 2 1 ",
"  c None",
". c #FAF200",
/* pixels */
"                                                                ",
"                                                                ",
"                                                                ",
"                                                                ",
"                                                                ",
"                                                                ",
"                                                                ",
"                                                                ",
"                                                                ",
"                                                                ",
"                                                                ",
"                                                                ",
"                                                                ",
"                                                                ",
"                                                                ",
"                                                                ",
"                                                                ",
"                                                                ",
"                                                                ",
"                                                                ",
"..........                                            ..........",
"..........                                            ..........",
"..........                                            ..........",
"..........                                            ..........",
"..........                                            ..........",
"...............                                  ...............",
"...............                                  ...............",
"...............                                  ...............",
"...............                                  ...............",
"...............                                  ...............",
"....................                        ....................",
"....................                        ....................",
"....................                        ....................",
"....................                        ....................",
"....................                        ....................",
".........................              .........................",
".........................              .........................",
".........................              .........................",
".........................              .........................",
".........................              .........................",
"..............................    ..............................",
"..............................    ..............................",
"..............................    ..............................",
"..............................    ..............................",
"    ........................................................    ",
"     ......................................................     ",
"     ......................................................     ",
"     ......................................................     ",
"     ......................................................     ",
"     ......................................................     ",
"     ......................................................     ",
"     ......................................................     ",
"     ......................................................     ",
"     ......................................................     ",
"          ............................................          ",
"          ............................................          ",
"          ............................................          ",
"          ............................................          ",
"          ............................................          ",
"                    ........................                    ",
"                    ........................                    ",
"                    ........................                    ",
"                    ........................                    ",
"                    ........................                    "
};
