/* XPM */
static char *caa7a3f529214ad48285d90b31588ccayXbHzb0WFU3zPU95[] = {
/* columns rows colors chars-per-pixel */
"64 64 2 1 ",
"  c None",
". c #FAF200",
/* pixels */
"                    ........................                    ",
"                    ........................                    ",
"                    ........................                    ",
"                    ........................                    ",
"                    .........................                   ",
"                    ..................................          ",
"                    ..................................          ",
"                    ..................................          ",
"                    ..................................          ",
"                    ..................................          ",
"                         ..................................     ",
"                         ..................................     ",
"                         ..................................     ",
"                         ..................................     ",
"                         ..................................     ",
"                              .............................     ",
"                              .............................     ",
"                              .............................     ",
"                              .............................     ",
"                              .............................     ",
"                                   .............................",
"                                   .............................",
"                                   .............................",
"                                   .............................",
"                                   .............................",
"                                        ........................",
"                                        ........................",
"                                        ........................",
"                                        ........................",
"                                        ........................",
"                                            ....................",
"                                            ....................",
"                                            ....................",
"                                            ....................",
"                                        ........................",
"                                        ........................",
"                                        ........................",
"                                        ........................",
"                                        ........................",
"                                   .............................",
"                                   .............................",
"                                   .............................",
"                                   .............................",
"                                   .............................",
"                              .............................     ",
"                              .............................     ",
"                              .............................     ",
"                              .............................     ",
"                              .............................     ",
"                         ..................................     ",
"                         ..................................     ",
"                         ..................................     ",
"                         ..................................     ",
"                         ..................................     ",
"                    ..................................          ",
"                    ..................................          ",
"                    ..................................          ",
"                    ..................................          ",
"                    ..................................          ",
"                    .........................                   ",
"                    ........................                    ",
"                    ........................                    ",
"                    ........................                    ",
"                    ........................                    "
};
