/* XPM */
static char *_6376b1f9adc4d8ea1ee99c0d51b9b6c6HqLiDh9tacl080W[] = {
/* columns rows colors chars-per-pixel */
"64 64 2 1 ",
"  c None",
". c #FAF200",
/* pixels */
"                    ........................                    ",
"                    ........................                    ",
"                    ........................                    ",
"                    ........................                    ",
"                   .........................                    ",
"          ..................................                    ",
"          ..................................                    ",
"          ..................................                    ",
"          ..................................                    ",
"          ..................................                    ",
"     ..................................                         ",
"     ..................................                         ",
"     ..................................                         ",
"     ..................................                         ",
"     ..................................                         ",
"     .............................                              ",
"     .............................                              ",
"     .............................                              ",
"     .............................                              ",
"     .............................                              ",
".............................                                   ",
".............................                                   ",
".............................                                   ",
".............................                                   ",
".............................                                   ",
"........................                                        ",
"........................                                        ",
"........................                                        ",
"........................                                        ",
"........................                                        ",
"....................                                            ",
"....................                                            ",
"....................                                            ",
"....................                                            ",
"........................                                        ",
"........................                                        ",
"........................                                        ",
"........................                                        ",
"........................                                        ",
".............................                                   ",
".............................                                   ",
".............................                                   ",
".............................                                   ",
".............................                                   ",
"     .............................                              ",
"     .............................                              ",
"     .............................                              ",
"     .............................                              ",
"     .............................                              ",
"     ..................................                         ",
"     ..................................                         ",
"     ..................................                         ",
"     ..................................                         ",
"     ..................................                         ",
"          ..................................                    ",
"          ..................................                    ",
"          ..................................                    ",
"          ..................................                    ",
"          ..................................                    ",
"                   .........................                    ",
"                    ........................                    ",
"                    ........................                    ",
"                    ........................                    ",
"                    ........................                    "
};
