/* XPM */
static char *_3ce08b62154421bcd7d3a1bae232c2cLFEOqSjAv5Nw1BYw[] = {
/* columns rows colors chars-per-pixel */
"64 64 2 1 ",
"  c None",
". c #FAF200",
/* pixels */
"                    ........................                    ",
"                    ........................                    ",
"                    ........................                    ",
"                    ........................                    ",
"                    ........................                    ",
"          ............................................          ",
"          ............................................          ",
"          ............................................          ",
"          ............................................          ",
"          ............................................          ",
"     ......................................................     ",
"     ......................................................     ",
"     ......................................................     ",
"     ......................................................     ",
"     ......................................................     ",
"     ......................................................     ",
"     ......................................................     ",
"     ......................................................     ",
"     ......................................................     ",
"    ........................................................    ",
"..............................    ..............................",
"..............................    ..............................",
"..............................    ..............................",
"..............................    ..............................",
".........................              .........................",
".........................              .........................",
".........................              .........................",
".........................              .........................",
".........................              .........................",
"....................                        ....................",
"....................                        ....................",
"....................                        ....................",
"....................                        ....................",
"....................                        ....................",
"...............                                  ...............",
"...............                                  ...............",
"...............                                  ...............",
"...............                                  ...............",
"...............                                  ...............",
"..........                                            ..........",
"..........                                            ..........",
"..........                                            ..........",
"..........                                            ..........",
"..........                                            ..........",
"                                                                ",
"                                                                ",
"                                                                ",
"                                                                ",
"                                                                ",
"                                                                ",
"                                                                ",
"                                                                ",
"                                                                ",
"                                                                ",
"                                                                ",
"                                                                ",
"                                                                ",
"                                                                ",
"                                                                ",
"                                                                ",
"                                                                ",
"                                                                ",
"                                                                ",
"                                                                "
};
