/* XPM */
static char *de2d3738eadf411bd07643d27415a945dGzZb548fSdSbk8k[] = {
/* columns rows colors chars-per-pixel */
"64 64 2 1 ",
"  c None",
". c #FAF200",
/* pixels */
"                    ........................                    ",
"                    ........................                    ",
"                    ........................                    ",
"                    ........................                    ",
"                    ........................                    ",
"          ............................................          ",
"          ............................................          ",
"          ............................................          ",
"          ............................................          ",
"          ............................................          ",
"     ......................................................     ",
"     ......................................................     ",
"     ......................................................     ",
"     ......................................................     ",
"     ......................................................     ",
"     ......................................................     ",
"     ......................................................     ",
"     ......................................................     ",
"     ......................................................     ",
"     ......................................................     ",
"               .................................................",
"               .................................................",
"               .................................................",
"               .................................................",
"               .................................................",
"                              ..................................",
"                              ..................................",
"                              ..................................",
"                              ..................................",
"                              ..................................",
"                                            ....................",
"                                            ....................",
"                                            ....................",
"                                            ....................",
"                              ..................................",
"                              ..................................",
"                              ..................................",
"                              ..................................",
"                              ..................................",
"               .................................................",
"               .................................................",
"               .................................................",
"               .................................................",
"               .................................................",
"     ......................................................     ",
"     ......................................................     ",
"     ......................................................     ",
"     ......................................................     ",
"     ......................................................     ",
"     ......................................................     ",
"     ......................................................     ",
"     ......................................................     ",
"     ......................................................     ",
"     ......................................................     ",
"          ............................................          ",
"          ............................................          ",
"          ............................................          ",
"          ............................................          ",
"          ............................................          ",
"                    ........................                    ",
"                    ........................                    ",
"                    ........................                    ",
"                    ........................                    ",
"                    ........................                    "
};
