/* XPM */
static char *eca9b9389b4d4ff5901aa78d8499207738IO8XYKAfjJl94z[] = {
/* columns rows colors chars-per-pixel */
"64 64 2 1 ",
"  c None",
". c #FAF200",
/* pixels */
"                                                                ",
"                                                                ",
"                                                                ",
"                                                                ",
"                                                                ",
"          ..........                        ..........          ",
"          ..........                        ..........          ",
"          ..........                        ..........          ",
"          ..........                        ..........          ",
"          ..........                        ..........          ",
"     ...............                        ...............     ",
"     ...............                        ...............     ",
"     ...............                        ...............     ",
"     ...............                        ...............     ",
"     ...............                        ...............     ",
"     ....................              ....................     ",
"     ....................              ....................     ",
"     ....................              ....................     ",
"     ....................              ....................     ",
"     ....................              ....................     ",
".........................              .........................",
".........................              .........................",
".........................              .........................",
".........................              .........................",
".........................              .........................",
".........................              .........................",
".........................              .........................",
".........................              .........................",
".........................              .........................",
".........................              .........................",
"..............................    ..............................",
"..............................    ..............................",
"..............................    ..............................",
"..............................    ..............................",
"..............................    ..............................",
"..............................    ..............................",
"..............................    ..............................",
"..............................    ..............................",
"..............................    ..............................",
"..............................    ..............................",
"..............................    ..............................",
"..............................    ..............................",
"..............................    ..............................",
"..............................    ..............................",
"     ......................................................     ",
"     ......................................................     ",
"     ......................................................     ",
"     ......................................................     ",
"     ......................................................     ",
"     ......................................................     ",
"     ......................................................     ",
"     ......................................................     ",
"     ......................................................     ",
"     ......................................................     ",
"          ............................................          ",
"          ............................................          ",
"          ............................................          ",
"          ............................................          ",
"          ............................................          ",
"                    ........................                    ",
"                    ........................                    ",
"                    ........................                    ",
"                    ........................                    ",
"                    ........................                    "
};
