/* XPM */
static char *_25389a20a3b4c13ee58a037ed53941bqaIudWAp8AXmiz8N[] = {
/* columns rows colors chars-per-pixel */
"64 64 42 1 ",
"  c None",
". c gray29",
"X c #4C4C4C",
"o c gray30",
"O c gray31",
"+ c #505050",
"@ c #515151",
"# c gray32",
"$ c #535353",
"% c gray33",
"& c #555555",
"* c #565656",
"= c gray34",
"- c #585858",
"; c gray35",
": c #5A5A5A",
"> c #5B5B5B",
", c gray37",
"< c #5F5F5F",
"1 c gray38",
"2 c #626262",
"3 c #646464",
"4 c #656565",
"5 c gray40",
"6 c #686868",
"7 c DimGray",
"8 c #6A6A6A",
"9 c gray42",
"0 c #6C6C6C",
"q c #6D6D6D",
"w c gray43",
"e c #6F6F6F",
"r c #717171",
"t c #727272",
"y c gray45",
"u c #747474",
"i c gray46",
"p c #767676",
"a c #777777",
"s c gray47",
"d c #797979",
"f c gray48",
/* pixels */
"                                                                ",
"................................................................",
"...............................X................................",
"..ff077777777777777777775.@ff77777777777777777777:.:fu7777777777",
"..ff077777777777777777772.@ff77777777777777777777:.:fu7777777777",
"..ff077777777777777777775.@fu77777777777777777777:.:fu7777777777",
"..ff077777777777777777772.@ff77777777777777777777:.:fu7777777777",
"..ff077777777777777777775.@fu77777777777777777777:.:fu7777777777",
"..ff077777777777777777775.@fu77777777777777777777:.:fy7777777777",
"..ffuuuyuuuuuuuuuuuuuuuu0.@ffuuuuuuuuuuuuuuuyyuuy2.:ffyyuuuuuuuu",
"..ffffffffffffffffffffffy.&ffffffffffffffffffffff2.:ffffffffffff",
"..::::::::::::::::::::::&.X::::::::::::::::::::::@.X::::::::::::",
"................................................................",
"2,,,,,2,,2,,@.:75,,,2,,,2,2,2,,,2,,,2X.2722,,,2,2,,,,,,22,,,,2..",
"777777777777&.2fy57777777777777777777@.yf077777777777777777777..",
"777777777777&.2fy77777777777777777777X.yfy77777777777777777777..",
"777777777777&.2fy57777777777777777777X.yfy77777777777777777777..",
"777777777777@.2fy77777777777777777777X.yf077777777777777777777..",
"777575775777&.2fy77575777777757577577@.yf057777777775777777577..",
"yyyyyyyyyyyy:.2fuyyyyyyyyyyuyyyyyyyyy@.yfuyyyyyyyyyyyyyyyyyyyy..",
"ffffffffffff:.2ffffffffffffffffffffff@.yffffffffffffffffffffff..",
"770777777770&.:7777777770777770777777@.57770770777777007707777..",
"X.....X.........X.....X.....X......................X............",
"..::&@&&&&@&&&&&&&&&&@&&@.X::&@&@&&&@&&&@&&&&@&&@@.X::&@&&&@&&&@",
"..ff077777777777777777775.@ff77777777777777777777:.:fu7777777777",
"..ff077777777777777777775.@fu77777777777777777777:.:fu7777777777",
"..ff077777777777777777775.@ff77777777777777777777:.:fu7777777777",
"..ff077777777777777777775.@fu77777777777777777777:.:fu7777777777",
"..ff077777777777777777772.@ff77777777777777777777:.:fu7777777777",
"..ff000000000000070000005.@ff70000000000000000070,.:fu0000000000",
"..ffffffffffffffffffffffy.@ffffffffffffffffffffff2.:ffffffffffff",
"..ffffffffffffffffffffffy.@ffffffffffffffffffffff2.:ffffffffffff",
"................................................................",
"................................................................",
"777777777777&.2fy77777777777777777777@.yfy77777777777777777777..",
"777777777777&.2fy77777777777777777777X.yf077777777777777777777..",
"777777777777&.2fy77777777777777777777X.yfy57777777777777777777..",
"777777777777@.2fy77777777777777777777@.yf077777777777777777777..",
"777777777777&.2fy77777777777777777777@.yfy77777777777777777777..",
"777777777777&.2fy77777777777777777777X.yf077777777777777777777..",
"ufufufufufuf:.2fuuufufuffufufufuufuff@.yfufuufuffufufufuufufuf..",
"ffffffffffff:.2ffffffffffffffffffffff@.yffffffffffffffffffffff..",
"::::::::::::X.@:,::::::::::::::::::::X.&::,:::::::::::::::::::..",
"..............X.................................................",
"..772,2,,,2,,2,,,2,,,,2,:.X752,2,,2,,,2,,,2,,,2,,&.&752,,2,,,,2,",
"..ff777777777777777777772.&fu77777777777777777777:.:fu7777777777",
"..ff077777777777777777775.&ff77777777777777777777:.:fu7777777777",
"..ff077777777777777777775.@fu77777777777777777777:.:fy7777777777",
"..ff077777777777777777775.@fu77777777777777777777:.:fu7777777777",
"..ff777777777777777777772.@fu77777757777777577777:.:fu7777777777",
"..ffyyyuyyyy0yyyyyyyyyyy7.@ffyyuyyyyyyuyyyyyyyuyy,.:fuyuuyyy0yyy",
"..ffffffffffffffffffffufy.&ffffffffffffffffffffff2.:ffffffffffff",
"..70777777777707770777075.X0777777777077777770777:.&777777077707",
".....X..X.X.........X........X..........................X.......",
"&&&@&&@&&&@&X.@,&&&@&&&@&@&&&&@&&@&&&X.&,&&&&@&@@&&&&&@&&&&@&&..",
"777777777777&.2fy77777777777777777777X.yf077777777777777777777..",
"777777777777@.2fy57777777777777777777X.yfy77777777777777777777..",
"777777777777&.2fy77777777777777777777@.yf077777777777777777777..",
"777777777777&.2fy77777777777777777777@.yfy77777777777777777777..",
"777777777777&.2fy77777777777777777777X.yf077777777777777777777..",
"000000000000&.2fy00000000000000000007@.yfy00000000000000000070..",
"ffffffffffff:.2ffffffffffffffffffffff@.yffffffffffffffffffffff..",
"ffffffffffff:.2ffffffffffffffffffffff@.yffffffffffffffffffffff..",
"                                                                "
};
